<?xml version="1.0" encoding="UTF-8" standalone="no"?><!DOCTYPE svg PUBLIC "-//W3C//DTD SVG 1.1//EN" "http://www.w3.org/Graphics/SVG/1.1/DTD/svg11.dtd"><svg width="100%" height="100%" viewBox="0 0 1280 500" version="1.1" xmlns="http://www.w3.org/2000/svg" xmlns:xlink="http://www.w3.org/1999/xlink" xml:space="preserve" xmlns:serif="http://www.serif.com/" style="fill-rule:evenodd;clip-rule:evenodd;stroke-linecap:round;stroke-linejoin:round;stroke-miterlimit:1.5;"><path id="polygon-traced-over-bridge" serif:id="polygon traced over bridge" d="M640,241.845c76.767,0 153.14,3.426 226.797,10.173c73.658,6.748 143.843,16.748 208.423,29.697c64.581,12.948 122.893,28.713 173.165,46.813c50.271,18.101 91.986,38.352 123.876,60.138c31.89,21.787 53.628,44.884 64.553,68.591c10.925,23.707 10.925,47.779 0,71.486c-10.925,23.707 -32.663,46.804 -64.553,68.591c-31.89,21.786 -73.605,42.037 -123.876,60.138c-50.272,18.1 -108.584,33.865 -173.165,46.813c-64.58,12.949 -134.765,22.949 -208.423,29.697c-73.657,6.747 -150.03,10.173 -226.797,10.173c-76.767,0 -153.14,-3.426 -226.797,-10.173c-73.658,-6.748 -143.843,-16.748 -208.423,-29.697c-64.581,-12.948 -122.893,-28.713 -173.165,-46.813c-50.271,-18.101 -91.986,-38.352 -123.876,-60.138c-31.89,-21.787 -53.628,-44.884 -64.553,-68.591c-10.925,-23.707 -10.925,-47.779 0,-71.486c10.925,-23.707 32.663,-46.804 64.553,-68.591c31.89,-21.786 73.605,-42.037 123.876,-60.138c50.272,-18.1 108.584,-33.865 173.165,-46.813c64.58,-12.949 134.765,-22.949 208.423,-29.697c73.657,-6.747 150.03,-10.173 226.797,-10.173Z" style="fill:none;stroke:#000;stroke-width:5px;"/><g><clipPath id="_clip1"><rect x="160.909" y="320.399" width="173.927" height="130.445"/></clipPath><g clip-path="url(#_clip1)"><path d="M334.837,450.845l-173.927,-0.03l-0.001,-130.34l173.928,130.37Z"/><path d="M334.836,450.845l-173.927,-0.03l-0.002,-130.34l173.929,130.37Zm-169.579,-4.377l156.525,0.026l-156.527,-117.325l0.002,117.299Z"/></g><clipPath id="_clip2"><rect x="989.091" y="320.845" width="130" height="130"/></clipPath><g clip-path="url(#_clip2)"><path d="M1053.96,320.833l-64.868,64.868l64.86,64.859l64.867,-64.868l-64.859,-64.859Z"/><path d="M1118.82,385.692l-64.867,64.868l-64.86,-64.859l64.868,-64.868l64.859,64.859Zm-124.922,0.009l60.055,60.055l60.063,-60.064l-60.055,-60.054l-60.063,60.063Z"/></g><clipPath id="_clip3"><rect x="693.98" y="334.313" width="168.709" height="117.691"/></clipPath><g clip-path="url(#_clip3)"><ellipse cx="778.117" cy="393.018" rx="84.137" ry="58.704"/><path d="M778.389,334.314l0.272,0.001l0.543,0.003l0.271,0.003l0.271,0.003l0.271,0.004l0.27,0.005l0.271,0.005l0.27,0.006l0.27,0.005l0.269,0.007l0.27,0.008l0.269,0.008l0.269,0.009l0.269,0.009l0.269,0.01l0.268,0.01l0.268,0.011l0.268,0.012l0.268,0.012l0.268,0.013l0.267,0.013l0.267,0.013l0.266,0.015l0.267,0.015l0.267,0.016l0.265,0.016l0.266,0.017l0.266,0.017l0.265,0.018l0.265,0.019l0.265,0.019l0.265,0.02l0.265,0.02l0.264,0.021l0.264,0.021l0.264,0.022l0.263,0.022l0.263,0.023l0.263,0.024l0.263,0.025l0.262,0.024l0.262,0.025l0.262,0.026l0.261,0.027l0.262,0.027l0.261,0.028l0.261,0.027l0.521,0.058l0.26,0.031l0.26,0.03l0.26,0.03l0.259,0.032l0.259,0.032l0.259,0.033l0.258,0.033l0.258,0.033l0.258,0.035l0.258,0.034l0.257,0.036l0.257,0.036l0.513,0.073l0.257,0.037l0.511,0.077l0.256,0.039l0.255,0.04l0.509,0.081l0.254,0.041l0.254,0.042l0.254,0.042l0.253,0.043l0.253,0.044l0.253,0.044l0.504,0.089l0.503,0.091l0.502,0.094l0.251,0.048l0.25,0.048l0.25,0.049l0.25,0.049l0.249,0.05l0.498,0.101l0.248,0.051l0.248,0.052l0.248,0.052l0.248,0.053l0.247,0.054l0.246,0.053l0.247,0.055l0.246,0.055l0.246,0.055l0.245,0.056l0.245,0.057l0.245,0.057l0.244,0.057l0.244,0.058l0.245,0.059l0.243,0.059l0.243,0.059l0.243,0.06l0.242,0.06l0.242,0.061l0.242,0.062l0.241,0.062l0.242,0.062l0.24,0.064l0.24,0.063l0.48,0.129l0.239,0.064l0.24,0.066l0.238,0.066l0.238,0.067l0.238,0.066l0.238,0.068l0.237,0.068l0.237,0.069l0.236,0.068l0.236,0.07l0.236,0.07l0.235,0.07l0.235,0.071l0.235,0.071l0.234,0.072l0.467,0.145l0.466,0.147l0.232,0.075l0.233,0.074l0.231,0.075l0.231,0.076l0.231,0.076l0.23,0.077l0.23,0.077l0.23,0.078l0.23,0.078l0.229,0.078l0.228,0.079l0.228,0.08l0.228,0.079l0.454,0.161l0.227,0.082l0.226,0.082l0.451,0.165l0.225,0.083l0.224,0.084l0.225,0.084l0.223,0.084l0.224,0.085l0.445,0.172l0.222,0.086l0.443,0.174l0.221,0.087l0.22,0.089l0.22,0.088l0.439,0.179l0.219,0.09l0.436,0.181l0.435,0.183l0.216,0.093l0.432,0.185l0.431,0.188l0.214,0.094l0.214,0.095l0.213,0.095l0.214,0.096l0.213,0.096l0.212,0.097l0.211,0.097l0.212,0.097l0.211,0.098l0.21,0.098l0.21,0.099l0.21,0.099l0.209,0.1l0.209,0.1l0.208,0.1l0.415,0.202l0.207,0.102l0.207,0.102l0.206,0.103l0.205,0.103l0.205,0.103l0.205,0.104l0.204,0.104l0.203,0.105l0.204,0.105l0.203,0.105l0.403,0.212l0.202,0.107l0.201,0.107l0.2,0.108l0.2,0.108l0.199,0.108l0.199,0.109l0.199,0.109l0.395,0.22l0.197,0.11l0.197,0.111l0.196,0.111l0.195,0.112l0.196,0.112l0.194,0.112l0.194,0.113l0.194,0.113l0.193,0.114l0.385,0.228l0.382,0.23l0.381,0.232l0.189,0.116l0.19,0.117l0.188,0.117l0.376,0.235l0.187,0.119l0.186,0.118l0.186,0.119l0.186,0.12l0.37,0.24l0.183,0.12l0.367,0.243l0.183,0.121l0.181,0.122l0.181,0.123l0.181,0.123l0.181,0.123l0.179,0.123l0.18,0.124l0.179,0.125l0.356,0.249l0.353,0.252l0.176,0.126l0.176,0.127l0.175,0.127l0.174,0.127l0.174,0.127l0.173,0.128l0.173,0.129l0.172,0.129l0.172,0.128l0.172,0.13l0.17,0.13l0.34,0.26l0.337,0.263l0.168,0.131l0.167,0.132l0.167,0.132l0.166,0.133l0.166,0.133l0.165,0.133l0.328,0.268l0.164,0.135l0.163,0.134l0.161,0.135l0.162,0.136l0.161,0.136l0.161,0.135l0.16,0.137l0.159,0.137l0.159,0.137l0.159,0.137l0.157,0.138l0.157,0.138l0.156,0.139l0.156,0.139l0.156,0.139l0.154,0.139l0.155,0.14l0.153,0.14l0.153,0.14l0.152,0.141l0.152,0.141l0.151,0.142l0.151,0.142l0.15,0.142l0.149,0.142l0.149,0.143l0.296,0.286l0.293,0.288l0.146,0.144l0.145,0.145l0.145,0.145l0.144,0.146l0.143,0.145l0.143,0.146l0.142,0.146l0.141,0.147l0.141,0.147l0.141,0.147l0.139,0.147l0.14,0.148l0.275,0.297l0.138,0.148l0.136,0.149l0.271,0.3l0.135,0.15l0.134,0.15l0.133,0.15l0.133,0.151l0.132,0.151l0.132,0.151l0.131,0.152l0.13,0.152l0.13,0.153l0.128,0.152l0.129,0.153l0.127,0.154l0.127,0.153l0.127,0.154l0.126,0.154l0.125,0.155l0.124,0.154l0.124,0.155l0.123,0.155l0.122,0.156l0.122,0.156l0.121,0.156l0.121,0.156l0.12,0.157l0.119,0.156l0.118,0.158l0.118,0.157l0.117,0.158l0.117,0.158l0.116,0.158l0.115,0.159l0.115,0.159l0.114,0.159l0.113,0.159l0.112,0.16l0.112,0.16l0.111,0.16l0.111,0.161l0.11,0.161l0.109,0.161l0.108,0.162l0.108,0.161l0.107,0.161l0.212,0.325l0.105,0.163l0.105,0.163l0.103,0.163l0.206,0.327l0.101,0.164l0.101,0.164l0.1,0.165l0.099,0.164l0.099,0.166l0.098,0.165l0.098,0.165l0.097,0.166l0.095,0.166l0.096,0.166l0.095,0.166l0.093,0.167l0.186,0.334l0.092,0.168l0.091,0.167l0.09,0.169l0.09,0.168l0.089,0.168l0.088,0.169l0.087,0.169l0.173,0.338l0.085,0.17l0.085,0.17l0.167,0.34l0.082,0.171l0.081,0.17l0.082,0.171l0.08,0.172l0.079,0.172l0.079,0.171l0.078,0.172l0.077,0.172l0.077,0.173l0.076,0.172l0.074,0.173l0.075,0.173l0.073,0.173l0.073,0.174l0.072,0.174l0.072,0.174l0.07,0.174l0.07,0.174l0.069,0.175l0.068,0.175l0.067,0.175l0.067,0.175l0.066,0.175l0.066,0.176l0.064,0.176l0.064,0.176l0.063,0.176l0.062,0.177l0.062,0.177l0.06,0.177l0.06,0.177l0.059,0.177l0.059,0.177l0.057,0.178l0.057,0.178l0.056,0.178l0.055,0.179l0.055,0.178l0.054,0.179l0.053,0.179l0.052,0.179l0.051,0.179l0.051,0.18l0.05,0.18l0.049,0.18l0.048,0.18l0.048,0.18l0.047,0.181l0.045,0.18l0.046,0.181l0.044,0.182l0.043,0.181l0.043,0.181l0.042,0.182l0.041,0.182l0.04,0.182l0.04,0.182l0.039,0.182l0.037,0.183l0.038,0.183l0.036,0.183l0.035,0.183l0.035,0.183l0.034,0.183l0.033,0.184l0.032,0.184l0.032,0.184l0.03,0.184l0.03,0.185l0.029,0.184l0.028,0.185l0.028,0.184l0.026,0.185l0.026,0.186l0.025,0.185l0.024,0.185l0.023,0.186l0.022,0.186l0.022,0.186l0.021,0.186l0.02,0.187l0.019,0.186l0.018,0.186l0.017,0.187l0.017,0.187l0.016,0.187l0.015,0.187l0.014,0.188l0.013,0.187l0.012,0.188l0.012,0.188l0.01,0.188l0.01,0.188l0.01,0.189l0.008,0.188l0.007,0.189l0.007,0.189l0.005,0.189l0.004,0.189l0.004,0.189l0.003,0.189l0.003,0.19l0.001,0.189l0,0.19l0,0.19l-0.001,0.19l-0.003,0.189l-0.003,0.189l-0.004,0.189l-0.004,0.189l-0.005,0.189l-0.007,0.189l-0.007,0.189l-0.008,0.188l-0.01,0.189l-0.01,0.188l-0.01,0.188l-0.012,0.188l-0.012,0.187l-0.013,0.188l-0.014,0.188l-0.015,0.187l-0.016,0.187l-0.017,0.187l-0.017,0.186l-0.018,0.187l-0.019,0.187l-0.02,0.186l-0.021,0.186l-0.022,0.186l-0.022,0.186l-0.023,0.186l-0.024,0.185l-0.025,0.185l-0.026,0.186l-0.026,0.185l-0.028,0.185l-0.028,0.184l-0.029,0.184l-0.03,0.185l-0.03,0.184l-0.032,0.184l-0.032,0.184l-0.033,0.183l-0.034,0.184l-0.035,0.183l-0.035,0.184l-0.036,0.182l-0.038,0.183l-0.037,0.182l-0.039,0.183l-0.04,0.182l-0.04,0.182l-0.041,0.182l-0.042,0.182l-0.043,0.181l-0.043,0.182l-0.044,0.181l-0.046,0.18l-0.045,0.181l-0.047,0.181l-0.048,0.18l-0.048,0.18l-0.049,0.18l-0.05,0.18l-0.051,0.179l-0.051,0.18l-0.052,0.179l-0.053,0.179l-0.054,0.178l-0.055,0.179l-0.055,0.178l-0.056,0.178l-0.057,0.178l-0.057,0.178l-0.059,0.178l-0.059,0.177l-0.06,0.178l-0.06,0.176l-0.062,0.177l-0.062,0.177l-0.063,0.176l-0.064,0.176l-0.064,0.176l-0.066,0.175l-0.066,0.176l-0.067,0.175l-0.067,0.175l-0.068,0.175l-0.069,0.175l-0.07,0.174l-0.07,0.174l-0.072,0.174l-0.072,0.174l-0.073,0.173l-0.073,0.174l-0.075,0.173l-0.074,0.173l-0.076,0.173l-0.077,0.172l-0.077,0.172l-0.078,0.172l-0.079,0.172l-0.079,0.171l-0.08,0.171l-0.082,0.172l-0.081,0.171l-0.082,0.17l-0.084,0.17l-0.083,0.17l-0.085,0.17l-0.085,0.17l-0.086,0.169l-0.087,0.169l-0.087,0.169l-0.088,0.169l-0.089,0.168l-0.09,0.168l-0.09,0.168l-0.091,0.168l-0.092,0.168l-0.093,0.167l-0.093,0.167l-0.093,0.166l-0.095,0.167l-0.096,0.166l-0.095,0.166l-0.097,0.166l-0.098,0.166l-0.098,0.165l-0.099,0.165l-0.099,0.164l-0.1,0.165l-0.101,0.164l-0.101,0.164l-0.103,0.163l-0.103,0.164l-0.103,0.163l-0.105,0.163l-0.105,0.163l-0.106,0.162l-0.106,0.162l-0.107,0.162l-0.108,0.162l-0.108,0.161l-0.109,0.161l-0.11,0.161l-0.111,0.16l-0.111,0.16l-0.112,0.16l-0.112,0.16l-0.113,0.16l-0.114,0.159l-0.115,0.159l-0.115,0.158l-0.116,0.159l-0.117,0.158l-0.117,0.158l-0.118,0.157l-0.118,0.157l-0.119,0.158l-0.12,0.156l-0.121,0.156l-0.121,0.157l-0.122,0.155l-0.122,0.156l-0.123,0.155l-0.124,0.155l-0.124,0.155l-0.125,0.154l-0.126,0.154l-0.127,0.154l-0.127,0.154l-0.127,0.153l-0.129,0.153l-0.128,0.152l-0.13,0.153l-0.13,0.152l-0.131,0.151l-0.132,0.152l-0.132,0.151l-0.133,0.151l-0.133,0.151l-0.134,0.15l-0.135,0.149l-0.135,0.15l-0.136,0.149l-0.136,0.149l-0.138,0.149l-0.137,0.149l-0.138,0.148l-0.14,0.148l-0.139,0.147l-0.141,0.147l-0.141,0.147l-0.141,0.147l-0.142,0.146l-0.143,0.146l-0.143,0.146l-0.144,0.145l-0.145,0.145l-0.145,0.145l-0.146,0.144l-0.146,0.144l-0.147,0.143l-0.148,0.144l-0.148,0.143l-0.149,0.143l-0.149,0.142l-0.15,0.142l-0.151,0.142l-0.151,0.142l-0.152,0.141l-0.152,0.14l-0.153,0.141l-0.153,0.14l-0.155,0.14l-0.154,0.139l-0.156,0.14l-0.156,0.138l-0.156,0.139l-0.157,0.138l-0.157,0.138l-0.159,0.137l-0.159,0.137l-0.159,0.137l-0.16,0.137l-0.161,0.136l-0.161,0.135l-0.162,0.136l-0.161,0.135l-0.163,0.135l-0.164,0.134l-0.164,0.134l-0.164,0.133l-0.165,0.134l-0.166,0.133l-0.166,0.132l-0.167,0.133l-0.167,0.132l-0.168,0.131l-0.168,0.131l-0.169,0.131l-0.17,0.131l-0.17,0.13l-0.17,0.13l-0.172,0.129l-0.172,0.13l-0.172,0.128l-0.173,0.129l-0.173,0.128l-0.174,0.127l-0.174,0.128l-0.175,0.127l-0.176,0.126l-0.176,0.126l-0.177,0.126l-0.176,0.126l-0.178,0.125l-0.178,0.124l-0.179,0.124l-0.18,0.125l-0.179,0.123l-0.181,0.124l-0.181,0.122l-0.181,0.123l-0.181,0.122l-0.183,0.121l-0.183,0.122l-0.184,0.121l-0.183,0.12l-0.185,0.121l-0.185,0.119l-0.186,0.12l-0.186,0.119l-0.186,0.118l-0.187,0.119l-0.188,0.118l-0.188,0.117l-0.188,0.118l-0.19,0.116l-0.189,0.117l-0.191,0.116l-0.19,0.115l-0.191,0.115l-0.191,0.115l-0.193,0.114l-0.192,0.114l-0.193,0.114l-0.194,0.113l-0.194,0.113l-0.194,0.112l-0.196,0.112l-0.195,0.112l-0.196,0.111l-0.197,0.111l-0.197,0.11l-0.198,0.11l-0.197,0.11l-0.199,0.109l-0.199,0.109l-0.199,0.108l-0.2,0.108l-0.2,0.107l-0.201,0.108l-0.202,0.106l-0.202,0.107l-0.201,0.106l-0.203,0.105l-0.204,0.105l-0.203,0.105l-0.204,0.104l-0.205,0.104l-0.205,0.103l-0.205,0.104l-0.206,0.102l-0.207,0.102l-0.207,0.102l-0.207,0.101l-0.208,0.101l-0.208,0.1l-0.209,0.1l-0.209,0.1l-0.21,0.099l-0.21,0.099l-0.21,0.098l-0.211,0.098l-0.212,0.097l-0.211,0.097l-0.212,0.097l-0.213,0.096l-0.214,0.096l-0.213,0.095l-0.214,0.095l-0.214,0.095l-0.215,0.093l-0.216,0.094l-0.216,0.093l-0.216,0.092l-0.216,0.093l-0.218,0.092l-0.217,0.091l-0.218,0.091l-0.218,0.09l-0.219,0.09l-0.219,0.089l-0.22,0.09l-0.22,0.088l-0.22,0.088l-0.221,0.088l-0.222,0.088l-0.221,0.086l-0.222,0.086l-0.223,0.087l-0.222,0.085l-0.224,0.085l-0.223,0.084l-0.225,0.084l-0.224,0.084l-0.225,0.083l-0.225,0.083l-0.226,0.082l-0.226,0.082l-0.227,0.081l-0.227,0.081l-0.227,0.081l-0.228,0.08l-0.228,0.079l-0.228,0.079l-0.229,0.078l-0.23,0.078l-0.23,0.078l-0.23,0.077l-0.23,0.077l-0.231,0.076l-0.231,0.076l-0.231,0.075l-0.233,0.074l-0.232,0.075l-0.233,0.074l-0.233,0.073l-0.233,0.073l-0.234,0.072l-0.234,0.071l-0.235,0.072l-0.235,0.071l-0.235,0.07l-0.236,0.07l-0.236,0.069l-0.236,0.069l-0.237,0.069l-0.237,0.068l-0.238,0.067l-0.238,0.068l-0.238,0.066l-0.238,0.066l-0.24,0.065l-0.239,0.065l-0.24,0.065l-0.24,0.064l-0.24,0.063l-0.24,0.063l-0.242,0.063l-0.241,0.062l-0.242,0.061l-0.242,0.061l-0.242,0.061l-0.243,0.06l-0.243,0.06l-0.243,0.058l-0.245,0.059l-0.244,0.058l-0.244,0.057l-0.245,0.058l-0.245,0.056l-0.245,0.056l-0.246,0.055l-0.246,0.055l-0.247,0.055l-0.246,0.054l-0.247,0.053l-0.248,0.053l-0.248,0.052l-0.248,0.052l-0.248,0.051l-0.249,0.051l-0.249,0.051l-0.249,0.049l-0.25,0.049l-0.25,0.049l-0.25,0.048l-0.251,0.047l-0.251,0.048l-0.251,0.046l-0.251,0.047l-0.252,0.045l-0.252,0.045l-0.252,0.045l-0.253,0.043l-0.253,0.044l-0.253,0.043l-0.254,0.042l-0.254,0.042l-0.254,0.041l-0.255,0.041l-0.254,0.04l-0.255,0.04l-0.256,0.039l-0.256,0.039l-0.255,0.037l-0.257,0.038l-0.256,0.037l-0.257,0.036l-0.257,0.036l-0.257,0.035l-0.258,0.035l-0.258,0.034l-0.258,0.034l-0.258,0.033l-0.259,0.033l-0.259,0.032l-0.259,0.031l-0.26,0.031l-0.26,0.031l-0.26,0.029l-0.26,0.03l-0.261,0.028l-0.261,0.029l-0.261,0.027l-0.262,0.027l-0.261,0.027l-0.262,0.025l-0.262,0.026l-0.262,0.025l-0.263,0.024l-0.263,0.023l-0.263,0.024l-0.263,0.022l-0.264,0.022l-0.264,0.021l-0.264,0.021l-0.265,0.02l-0.265,0.02l-0.265,0.019l-0.265,0.019l-0.265,0.018l-0.266,0.017l-0.266,0.017l-0.265,0.016l-0.267,0.016l-0.267,0.015l-0.266,0.014l-0.267,0.014l-0.267,0.014l-0.268,0.012l-0.268,0.013l-0.268,0.011l-0.268,0.011l-0.268,0.011l-0.269,0.009l-0.269,0.009l-0.269,0.009l-0.269,0.008l-0.27,0.007l-0.269,0.007l-0.27,0.007l-0.27,0.005l-0.271,0.005l-0.27,0.005l-0.271,0.004l-0.271,0.003l-0.271,0.003l-0.272,0.002l-0.271,0.001l-0.272,0.001l-0.272,0l-0.272,0l-0.272,-0.001l-0.271,-0.001l-0.271,-0.002l-0.272,-0.003l-0.271,-0.003l-0.271,-0.004l-0.27,-0.005l-0.271,-0.005l-0.27,-0.005l-0.269,-0.007l-0.27,-0.007l-0.27,-0.007l-0.269,-0.008l-0.269,-0.009l-0.269,-0.009l-0.269,-0.009l-0.268,-0.011l-0.268,-0.011l-0.268,-0.011l-0.268,-0.013l-0.267,-0.012l-0.268,-0.014l-0.266,-0.014l-0.267,-0.014l-0.267,-0.015l-0.266,-0.016l-0.266,-0.016l-0.266,-0.017l-0.266,-0.017l-0.265,-0.018l-0.265,-0.019l-0.265,-0.019l-0.265,-0.02l-0.264,-0.02l-0.265,-0.021l-0.263,-0.021l-0.264,-0.022l-0.263,-0.022l-0.264,-0.024l-0.262,-0.023l-0.264,-0.024l-0.262,-0.025l-0.262,-0.026l-0.262,-0.025l-0.261,-0.027l-0.262,-0.027l-0.261,-0.027l-0.261,-0.029l-0.26,-0.028l-0.261,-0.03l-0.26,-0.029l-0.26,-0.031l-0.259,-0.031l-0.26,-0.031l-0.259,-0.032l-0.258,-0.033l-0.259,-0.033l-0.258,-0.034l-0.258,-0.034l-0.257,-0.035l-0.258,-0.035l-0.256,-0.036l-0.257,-0.036l-0.257,-0.037l-0.256,-0.038l-0.256,-0.037l-0.256,-0.039l-0.255,-0.039l-0.255,-0.04l-0.255,-0.04l-0.255,-0.041l-0.253,-0.041l-0.254,-0.042l-0.254,-0.042l-0.254,-0.043l-0.252,-0.044l-0.253,-0.043l-0.252,-0.045l-0.253,-0.045l-0.251,-0.045l-0.252,-0.047l-0.251,-0.046l-0.251,-0.048l-0.25,-0.047l-0.251,-0.048l-0.25,-0.049l-0.25,-0.049l-0.249,-0.049l-0.249,-0.051l-0.248,-0.051l-0.249,-0.051l-0.248,-0.052l-0.248,-0.052l-0.247,-0.053l-0.247,-0.053l-0.247,-0.054l-0.247,-0.055l-0.245,-0.055l-0.246,-0.055l-0.245,-0.056l-0.246,-0.056l-0.244,-0.058l-0.245,-0.057l-0.244,-0.058l-0.244,-0.059l-0.244,-0.058l-0.243,-0.06l-0.243,-0.06l-0.242,-0.061l-0.242,-0.061l-0.241,-0.061l-0.242,-0.062l-0.241,-0.063l-0.241,-0.063l-0.24,-0.063l-0.24,-0.064l-0.24,-0.065l-0.239,-0.065l-0.239,-0.065l-0.239,-0.066l-0.238,-0.066l-0.238,-0.068l-0.237,-0.067l-0.237,-0.068l-0.237,-0.069l-0.236,-0.069l-0.237,-0.069l-0.235,-0.07l-0.236,-0.07l-0.235,-0.071l-0.234,-0.072l-0.235,-0.071l-0.233,-0.072l-0.234,-0.073l-0.233,-0.073l-0.233,-0.074l-0.232,-0.075l-0.232,-0.074l-0.232,-0.075l-0.231,-0.076l-0.231,-0.076l-0.23,-0.077l-0.23,-0.077l-0.23,-0.078l-0.229,-0.078l-0.229,-0.078l-0.229,-0.079l-0.228,-0.079l-0.227,-0.08l-0.228,-0.081l-0.227,-0.081l-0.227,-0.081l-0.226,-0.082l-0.225,-0.082l-0.226,-0.083l-0.225,-0.083l-0.224,-0.084l-0.224,-0.084l-0.224,-0.084l-0.223,-0.085l-0.223,-0.085l-0.223,-0.087l-0.222,-0.086l-0.221,-0.086l-0.222,-0.088l-0.221,-0.088l-0.22,-0.088l-0.22,-0.088l-0.219,-0.09l-0.219,-0.089l-0.22,-0.09l-0.218,-0.09l-0.218,-0.091l-0.217,-0.091l-0.217,-0.092l-0.217,-0.093l-0.216,-0.092l-0.216,-0.093l-0.215,-0.094l-0.215,-0.093l-0.215,-0.095l-0.214,-0.095l-0.213,-0.095l-0.213,-0.096l-0.213,-0.096l-0.212,-0.097l-0.212,-0.097l-0.212,-0.097l-0.211,-0.098l-0.21,-0.098l-0.21,-0.099l-0.21,-0.099l-0.209,-0.1l-0.208,-0.1l-0.209,-0.1l-0.208,-0.101l-0.207,-0.101l-0.207,-0.102l-0.206,-0.102l-0.206,-0.102l-0.206,-0.104l-0.205,-0.103l-0.204,-0.104l-0.204,-0.104l-0.204,-0.105l-0.203,-0.105l-0.203,-0.105l-0.202,-0.106l-0.202,-0.107l-0.202,-0.106l-0.2,-0.108l-0.201,-0.107l-0.2,-0.108l-0.199,-0.108l-0.199,-0.109l-0.198,-0.109l-0.198,-0.11l-0.198,-0.11l-0.197,-0.11l-0.196,-0.111l-0.196,-0.111l-0.196,-0.112l-0.195,-0.112l-0.194,-0.112l-0.195,-0.113l-0.193,-0.113l-0.193,-0.114l-0.193,-0.114l-0.192,-0.114l-0.192,-0.115l-0.191,-0.115l-0.19,-0.115l-0.19,-0.116l-0.19,-0.117l-0.189,-0.116l-0.189,-0.118l-0.188,-0.117l-0.188,-0.118l-0.186,-0.119l-0.187,-0.118l-0.186,-0.119l-0.186,-0.12l-0.184,-0.119l-0.185,-0.121l-0.184,-0.12l-0.183,-0.121l-0.184,-0.122l-0.182,-0.121l-0.182,-0.122l-0.181,-0.123l-0.181,-0.122l-0.18,-0.124l-0.18,-0.123l-0.179,-0.125l-0.179,-0.124l-0.178,-0.124l-0.178,-0.125l-0.177,-0.126l-0.177,-0.126l-0.176,-0.126l-0.175,-0.126l-0.175,-0.127l-0.175,-0.128l-0.174,-0.127l-0.173,-0.128l-0.173,-0.129l-0.172,-0.128l-0.172,-0.13l-0.171,-0.129l-0.171,-0.13l-0.17,-0.13l-0.17,-0.131l-0.168,-0.131l-0.169,-0.131l-0.167,-0.131l-0.168,-0.132l-0.166,-0.133l-0.167,-0.132l-0.166,-0.133l-0.165,-0.134l-0.164,-0.133l-0.164,-0.134l-0.163,-0.134l-0.163,-0.135l-0.162,-0.135l-0.162,-0.136l-0.161,-0.135l-0.161,-0.136l-0.16,-0.137l-0.159,-0.137l-0.159,-0.137l-0.158,-0.137l-0.158,-0.138l-0.156,-0.138l-0.157,-0.139l-0.156,-0.138l-0.155,-0.14l-0.155,-0.139l-0.154,-0.14l-0.154,-0.14l-0.152,-0.141l-0.153,-0.14l-0.152,-0.141l-0.151,-0.142l-0.151,-0.142l-0.149,-0.142l-0.15,-0.142l-0.149,-0.143l-0.148,-0.143l-0.148,-0.144l-0.146,-0.143l-0.147,-0.144l-0.146,-0.144l-0.145,-0.145l-0.144,-0.145l-0.144,-0.145l-0.143,-0.146l-0.144,-0.146l-0.142,-0.146l-0.141,-0.147l-0.141,-0.147l-0.14,-0.147l-0.14,-0.147l-0.139,-0.148l-0.138,-0.148l-0.138,-0.149l-0.138,-0.149l-0.136,-0.149l-0.135,-0.149l-0.136,-0.15l-0.135,-0.149l-0.134,-0.15l-0.133,-0.151l-0.133,-0.151l-0.132,-0.151l-0.131,-0.152l-0.131,-0.151l-0.13,-0.152l-0.13,-0.153l-0.129,-0.152l-0.129,-0.153l-0.127,-0.153l-0.127,-0.154l-0.127,-0.154l-0.125,-0.154l-0.126,-0.154l-0.124,-0.155l-0.124,-0.155l-0.123,-0.155l-0.122,-0.156l-0.122,-0.155l-0.121,-0.157l-0.12,-0.156l-0.12,-0.156l-0.12,-0.158l-0.118,-0.157l-0.118,-0.157l-0.117,-0.158l-0.116,-0.158l-0.116,-0.159l-0.116,-0.158l-0.115,-0.159l-0.113,-0.159l-0.113,-0.16l-0.113,-0.16l-0.112,-0.16l-0.111,-0.16l-0.111,-0.16l-0.109,-0.161l-0.109,-0.161l-0.109,-0.161l-0.108,-0.162l-0.107,-0.162l-0.106,-0.162l-0.106,-0.162l-0.105,-0.163l-0.104,-0.163l-0.104,-0.163l-0.103,-0.164l-0.102,-0.163l-0.102,-0.164l-0.101,-0.164l-0.1,-0.165l-0.099,-0.164l-0.099,-0.165l-0.098,-0.165l-0.098,-0.166l-0.096,-0.166l-0.096,-0.166l-0.096,-0.166l-0.094,-0.167l-0.094,-0.166l-0.093,-0.167l-0.093,-0.167l-0.091,-0.168l-0.091,-0.168l-0.091,-0.168l-0.09,-0.168l-0.088,-0.168l-0.088,-0.169l-0.088,-0.169l-0.086,-0.169l-0.087,-0.169l-0.085,-0.17l-0.085,-0.17l-0.083,-0.17l-0.084,-0.17l-0.082,-0.17l-0.081,-0.171l-0.081,-0.172l-0.08,-0.171l-0.08,-0.171l-0.078,-0.172l-0.079,-0.172l-0.077,-0.172l-0.076,-0.172l-0.076,-0.173l-0.075,-0.173l-0.074,-0.173l-0.074,-0.174l-0.072,-0.173l-0.073,-0.174l-0.071,-0.174l-0.07,-0.174l-0.07,-0.174l-0.069,-0.175l-0.069,-0.175l-0.067,-0.175l-0.067,-0.175l-0.066,-0.176l-0.065,-0.175l-0.065,-0.176l-0.064,-0.176l-0.063,-0.176l-0.062,-0.177l-0.061,-0.177l-0.061,-0.176l-0.06,-0.178l-0.059,-0.177l-0.059,-0.178l-0.057,-0.178l-0.057,-0.178l-0.056,-0.178l-0.055,-0.178l-0.055,-0.179l-0.053,-0.178l-0.053,-0.179l-0.052,-0.179l-0.052,-0.18l-0.05,-0.179l-0.05,-0.18l-0.05,-0.18l-0.048,-0.18l-0.047,-0.18l-0.047,-0.181l-0.046,-0.181l-0.045,-0.18l-0.044,-0.181l-0.044,-0.182l-0.043,-0.181l-0.041,-0.182l-0.042,-0.182l-0.04,-0.182l-0.04,-0.182l-0.038,-0.183l-0.038,-0.182l-0.037,-0.183l-0.037,-0.182l-0.035,-0.184l-0.035,-0.183l-0.034,-0.184l-0.033,-0.183l-0.032,-0.184l-0.031,-0.184l-0.031,-0.184l-0.03,-0.185l-0.029,-0.184l-0.028,-0.184l-0.027,-0.185l-0.027,-0.185l-0.025,-0.186l-0.025,-0.185l-0.025,-0.185l-0.023,-0.186l-0.022,-0.186l-0.022,-0.186l-0.02,-0.186l-0.021,-0.186l-0.019,-0.187l-0.018,-0.187l-0.017,-0.186l-0.017,-0.187l-0.016,-0.187l-0.015,-0.187l-0.014,-0.188l-0.013,-0.188l-0.012,-0.187l-0.012,-0.188l-0.01,-0.188l-0.01,-0.188l-0.009,-0.189l-0.008,-0.188l-0.008,-0.189l-0.006,-0.189l-0.005,-0.189l-0.005,-0.189l-0.004,-0.189l-0.003,-0.189l-0.002,-0.189l-0.001,-0.19l-0.001,-0.19l0.001,-0.19l0.001,-0.189l0.002,-0.19l0.003,-0.189l0.004,-0.189l0.005,-0.189l0.005,-0.189l0.006,-0.189l0.008,-0.189l0.008,-0.188l0.009,-0.189l0.01,-0.188l0.01,-0.188l0.012,-0.188l0.012,-0.188l0.013,-0.187l0.014,-0.188l0.015,-0.187l0.016,-0.187l0.017,-0.187l0.017,-0.187l0.018,-0.186l0.019,-0.186l0.021,-0.187l0.02,-0.186l0.022,-0.186l0.022,-0.186l0.023,-0.186l0.025,-0.185l0.025,-0.185l0.025,-0.186l0.027,-0.185l0.027,-0.184l0.028,-0.185l0.029,-0.184l0.03,-0.185l0.031,-0.184l0.031,-0.184l0.032,-0.184l0.033,-0.184l0.034,-0.183l0.035,-0.183l0.035,-0.183l0.037,-0.183l0.037,-0.183l0.038,-0.183l0.038,-0.182l0.04,-0.182l0.04,-0.182l0.042,-0.182l0.041,-0.182l0.043,-0.181l0.044,-0.181l0.044,-0.182l0.045,-0.181l0.046,-0.18l0.047,-0.181l0.047,-0.18l0.048,-0.18l0.05,-0.18l0.05,-0.18l0.05,-0.18l0.052,-0.179l0.052,-0.179l0.053,-0.179l0.053,-0.179l0.055,-0.178l0.055,-0.179l0.056,-0.178l0.057,-0.178l0.057,-0.178l0.059,-0.177l0.059,-0.177l0.06,-0.177l0.061,-0.177l0.061,-0.177l0.062,-0.177l0.063,-0.176l0.064,-0.176l0.065,-0.176l0.065,-0.176l0.066,-0.175l0.067,-0.175l0.067,-0.175l0.069,-0.175l0.069,-0.175l0.07,-0.174l0.07,-0.174l0.071,-0.174l0.073,-0.174l0.072,-0.174l0.074,-0.173l0.074,-0.173l0.075,-0.173l0.076,-0.172l0.076,-0.173l0.077,-0.172l0.079,-0.172l0.078,-0.171l0.08,-0.172l0.08,-0.172l0.081,-0.171l0.081,-0.17l0.082,-0.171l0.084,-0.17l0.083,-0.17l0.085,-0.17l0.085,-0.17l0.087,-0.169l0.086,-0.169l0.088,-0.169l0.088,-0.169l0.088,-0.168l0.09,-0.168l0.091,-0.169l0.091,-0.167l0.091,-0.168l0.093,-0.167l0.093,-0.167l0.094,-0.167l0.094,-0.166l0.096,-0.166l0.096,-0.166l0.096,-0.166l0.098,-0.165l0.098,-0.165l0.099,-0.166l0.099,-0.164l0.1,-0.165l0.101,-0.164l0.102,-0.164l0.102,-0.164l0.103,-0.163l0.104,-0.163l0.104,-0.163l0.105,-0.163l0.106,-0.162l0.106,-0.163l0.107,-0.161l0.108,-0.161l0.109,-0.162l0.109,-0.161l0.109,-0.161l0.111,-0.161l0.111,-0.16l0.112,-0.16l0.113,-0.16l0.113,-0.159l0.113,-0.159l0.115,-0.159l0.116,-0.159l0.116,-0.158l0.116,-0.158l0.117,-0.158l0.118,-0.157l0.118,-0.158l0.12,-0.156l0.12,-0.157l0.12,-0.156l0.121,-0.156l0.122,-0.156l0.122,-0.156l0.123,-0.155l0.124,-0.155l0.124,-0.154l0.126,-0.155l0.125,-0.154l0.127,-0.154l0.127,-0.153l0.127,-0.154l0.129,-0.153l0.129,-0.152l0.13,-0.153l0.13,-0.152l0.131,-0.152l0.131,-0.151l0.132,-0.151l0.133,-0.151l0.133,-0.15l0.134,-0.15l0.135,-0.15l0.136,-0.15l0.135,-0.15l0.136,-0.149l0.138,-0.148l0.138,-0.148l0.138,-0.149l0.139,-0.148l0.14,-0.147l0.14,-0.147l0.141,-0.147l0.141,-0.147l0.142,-0.146l0.144,-0.146l0.143,-0.145l0.144,-0.146l0.144,-0.145l0.145,-0.145l0.146,-0.144l0.147,-0.144l0.146,-0.144l0.148,-0.143l0.148,-0.143l0.149,-0.143l0.15,-0.142l0.149,-0.142l0.151,-0.142l0.151,-0.142l0.152,-0.141l0.153,-0.141l0.152,-0.14l0.154,-0.14l0.154,-0.14l0.155,-0.139l0.155,-0.139l0.156,-0.139l0.157,-0.139l0.156,-0.138l0.158,-0.138l0.158,-0.137l0.159,-0.137l0.159,-0.137l0.16,-0.137l0.161,-0.135l0.161,-0.136l0.162,-0.136l0.162,-0.135l0.163,-0.134l0.163,-0.135l0.164,-0.134l0.164,-0.134l0.165,-0.133l0.166,-0.133l0.167,-0.133l0.166,-0.132l0.168,-0.132l0.167,-0.131l0.169,-0.132l0.168,-0.131l0.17,-0.13l0.17,-0.13l0.171,-0.13l0.171,-0.13l0.172,-0.128l0.172,-0.129l0.173,-0.129l0.173,-0.128l0.174,-0.127l0.175,-0.127l0.175,-0.127l0.175,-0.127l0.176,-0.126l0.177,-0.126l0.177,-0.126l0.178,-0.124l0.178,-0.125l0.179,-0.125l0.179,-0.124l0.18,-0.123l0.18,-0.123l0.181,-0.123l0.181,-0.123l0.182,-0.122l0.182,-0.121l0.184,-0.122l0.183,-0.121l0.184,-0.12l0.185,-0.12l0.184,-0.12l0.186,-0.12l0.186,-0.119l0.187,-0.118l0.186,-0.119l0.188,-0.117l0.188,-0.118l0.189,-0.117l0.189,-0.117l0.19,-0.116l0.19,-0.116l0.19,-0.116l0.191,-0.115l0.192,-0.115l0.192,-0.114l0.193,-0.114l0.193,-0.114l0.193,-0.113l0.195,-0.113l0.194,-0.112l0.195,-0.112l0.196,-0.112l0.196,-0.111l0.196,-0.111l0.197,-0.11l0.198,-0.11l0.198,-0.11l0.198,-0.109l0.199,-0.109l0.199,-0.108l0.2,-0.108l0.201,-0.108l0.2,-0.107l0.202,-0.107l0.202,-0.106l0.202,-0.106l0.203,-0.105l0.203,-0.105l0.204,-0.105l0.204,-0.104l0.204,-0.104l0.205,-0.103l0.206,-0.103l0.206,-0.103l0.206,-0.102l0.207,-0.102l0.207,-0.101l0.208,-0.101l0.209,-0.1l0.208,-0.1l0.209,-0.1l0.21,-0.099l0.21,-0.099l0.21,-0.098l0.211,-0.098l0.212,-0.097l0.212,-0.097l0.212,-0.097l0.213,-0.096l0.213,-0.096l0.213,-0.095l0.214,-0.095l0.215,-0.094l0.215,-0.094l0.215,-0.094l0.216,-0.093l0.216,-0.092l0.217,-0.093l0.217,-0.091l0.217,-0.092l0.218,-0.09l0.218,-0.091l0.22,-0.09l0.219,-0.089l0.219,-0.09l0.22,-0.088l0.22,-0.089l0.221,-0.087l0.222,-0.087l0.221,-0.087l0.222,-0.086l0.223,-0.086l0.223,-0.086l0.223,-0.085l0.224,-0.084l0.224,-0.084l0.224,-0.084l0.225,-0.083l0.226,-0.083l0.225,-0.082l0.226,-0.082l0.227,-0.082l0.227,-0.08l0.228,-0.081l0.227,-0.079l0.228,-0.08l0.229,-0.079l0.229,-0.078l0.229,-0.078l0.23,-0.078l0.23,-0.077l0.23,-0.077l0.231,-0.076l0.231,-0.076l0.232,-0.075l0.232,-0.074l0.232,-0.075l0.233,-0.073l0.233,-0.074l0.234,-0.072l0.233,-0.073l0.235,-0.072l0.234,-0.071l0.235,-0.071l0.236,-0.07l0.235,-0.07l0.237,-0.07l0.236,-0.068l0.237,-0.069l0.237,-0.068l0.237,-0.068l0.238,-0.066l0.238,-0.067l0.239,-0.066l0.239,-0.066l0.239,-0.064l0.24,-0.065l0.24,-0.064l0.24,-0.063l0.241,-0.064l0.241,-0.062l0.242,-0.062l0.241,-0.062l0.242,-0.061l0.242,-0.06l0.243,-0.06l0.243,-0.059l0.244,-0.059l0.244,-0.059l0.244,-0.058l0.245,-0.057l0.244,-0.057l0.246,-0.057l0.245,-0.056l0.246,-0.055l0.245,-0.055l0.247,-0.055l0.247,-0.053l0.247,-0.054l0.247,-0.053l0.248,-0.052l0.248,-0.052l0.249,-0.051l0.248,-0.051l0.249,-0.05l0.249,-0.05l0.25,-0.049l0.25,-0.049l0.251,-0.048l0.25,-0.048l0.251,-0.047l0.251,-0.047l0.252,-0.045l0.251,-0.046l0.253,-0.045l0.252,-0.044l0.253,-0.044l0.252,-0.044l0.254,-0.043l0.254,-0.042l0.254,-0.042l0.253,-0.041l0.255,-0.041l0.255,-0.04l0.255,-0.04l0.255,-0.039l0.256,-0.038l0.256,-0.039l0.256,-0.037l0.257,-0.037l0.257,-0.036l0.256,-0.036l0.258,-0.036l0.257,-0.034l0.258,-0.035l0.258,-0.033l0.259,-0.033l0.258,-0.033l0.259,-0.032l0.26,-0.032l0.259,-0.03l0.26,-0.03l0.26,-0.031l0.261,-0.029l0.26,-0.029l0.261,-0.027l0.261,-0.028l0.262,-0.027l0.261,-0.027l0.262,-0.026l0.262,-0.025l0.262,-0.024l0.264,-0.025l0.262,-0.024l0.264,-0.023l0.263,-0.022l0.264,-0.022l0.263,-0.021l0.265,-0.021l0.264,-0.02l0.265,-0.02l0.265,-0.019l0.265,-0.019l0.265,-0.018l0.266,-0.017l0.266,-0.017l0.266,-0.016l0.266,-0.016l0.267,-0.015l0.267,-0.015l0.266,-0.013l0.268,-0.013l0.267,-0.013l0.268,-0.012l0.268,-0.012l0.268,-0.011l0.268,-0.01l0.269,-0.01l0.269,-0.009l0.269,-0.009l0.269,-0.008l0.27,-0.008l0.27,-0.007l0.269,-0.005l0.27,-0.006l0.271,-0.005l0.27,-0.005l0.271,-0.004l0.271,-0.003l0.272,-0.003l0.271,-0.002l0.271,-0.001l0.272,-0.001l0.272,-0.001l0.272,0.001Zm-0.537,3.044l-0.265,0l-0.265,0.002l-0.265,0.002l-0.264,0.003l-0.264,0.003l-0.264,0.004l-0.264,0.004l-0.264,0.005l-0.263,0.005l-0.263,0.007l-0.263,0.006l-0.263,0.007l-0.263,0.009l-0.262,0.008l-0.262,0.009l-0.262,0.009l-0.262,0.011l-0.261,0.01l-0.261,0.011l-0.261,0.012l-0.261,0.012l-0.26,0.014l-0.261,0.013l-0.26,0.014l-0.26,0.015l-0.259,0.015l-0.26,0.016l-0.259,0.017l-0.259,0.016l-0.258,0.018l-0.259,0.018l-0.258,0.018l-0.258,0.02l-0.258,0.019l-0.257,0.021l-0.257,0.02l-0.257,0.022l-0.257,0.022l-0.257,0.023l-0.255,0.022l-0.257,0.024l-0.255,0.024l-0.256,0.025l-0.255,0.025l-0.255,0.026l-0.255,0.026l-0.254,0.027l-0.254,0.027l-0.254,0.028l-0.253,0.029l-0.254,0.029l-0.253,0.03l-0.253,0.03l-0.252,0.03l-0.253,0.031l-0.251,0.032l-0.252,0.033l-0.252,0.032l-0.251,0.034l-0.251,0.033l-0.25,0.035l-0.251,0.035l-0.25,0.035l-0.249,0.036l-0.25,0.037l-0.249,0.037l-0.249,0.037l-0.249,0.038l-0.248,0.039l-0.248,0.039l-0.248,0.04l-0.247,0.04l-0.247,0.04l-0.247,0.042l-0.247,0.041l-0.246,0.043l-0.247,0.043l-0.245,0.043l-0.246,0.043l-0.244,0.045l-0.245,0.045l-0.245,0.045l-0.244,0.046l-0.244,0.046l-0.243,0.047l-0.243,0.048l-0.243,0.048l-0.243,0.048l-0.242,0.049l-0.242,0.049l-0.242,0.05l-0.241,0.051l-0.241,0.051l-0.241,0.051l-0.24,0.052l-0.24,0.052l-0.24,0.054l-0.239,0.053l-0.239,0.054l-0.239,0.054l-0.238,0.055l-0.239,0.055l-0.237,0.056l-0.237,0.056l-0.238,0.058l-0.236,0.057l-0.237,0.057l-0.236,0.059l-0.236,0.059l-0.235,0.059l-0.235,0.06l-0.234,0.06l-0.235,0.061l-0.233,0.061l-0.234,0.062l-0.234,0.062l-0.232,0.063l-0.233,0.063l-0.232,0.064l-0.232,0.064l-0.231,0.064l-0.232,0.065l-0.23,0.066l-0.231,0.066l-0.23,0.067l-0.229,0.066l-0.23,0.068l-0.228,0.068l-0.229,0.068l-0.228,0.069l-0.228,0.069l-0.228,0.07l-0.227,0.07l-0.226,0.071l-0.227,0.071l-0.226,0.072l-0.226,0.072l-0.224,0.072l-0.225,0.073l-0.225,0.074l-0.224,0.074l-0.223,0.074l-0.224,0.075l-0.223,0.075l-0.222,0.076l-0.222,0.076l-0.222,0.076l-0.221,0.078l-0.221,0.077l-0.221,0.079l-0.22,0.078l-0.22,0.079l-0.219,0.079l-0.219,0.08l-0.218,0.08l-0.218,0.081l-0.218,0.081l-0.218,0.081l-0.217,0.082l-0.216,0.083l-0.216,0.083l-0.216,0.082l-0.215,0.085l-0.215,0.084l-0.215,0.084l-0.213,0.085l-0.214,0.086l-0.213,0.086l-0.213,0.086l-0.212,0.086l-0.212,0.088l-0.212,0.087l-0.211,0.088l-0.21,0.089l-0.211,0.088l-0.21,0.09l-0.209,0.089l-0.209,0.09l-0.208,0.091l-0.209,0.091l-0.207,0.091l-0.207,0.092l-0.207,0.093l-0.206,0.092l-0.206,0.093l-0.206,0.094l-0.205,0.094l-0.204,0.093l-0.204,0.096l-0.204,0.095l-0.203,0.095l-0.203,0.096l-0.202,0.096l-0.202,0.097l-0.201,0.097l-0.201,0.098l-0.2,0.098l-0.2,0.098l-0.2,0.098l-0.199,0.099l-0.199,0.1l-0.198,0.1l-0.197,0.1l-0.198,0.101l-0.197,0.102l-0.196,0.101l-0.196,0.101l-0.195,0.103l-0.195,0.103l-0.195,0.103l-0.193,0.103l-0.194,0.104l-0.193,0.104l-0.192,0.105l-0.192,0.104l-0.192,0.106l-0.191,0.106l-0.191,0.106l-0.19,0.106l-0.189,0.108l-0.189,0.107l-0.189,0.107l-0.188,0.108l-0.187,0.109l-0.188,0.108l-0.186,0.11l-0.187,0.109l-0.185,0.11l-0.186,0.11l-0.184,0.111l-0.184,0.111l-0.184,0.111l-0.183,0.112l-0.183,0.112l-0.182,0.112l-0.181,0.113l-0.181,0.113l-0.181,0.114l-0.18,0.114l-0.18,0.114l-0.179,0.115l-0.178,0.114l-0.178,0.116l-0.178,0.116l-0.177,0.116l-0.176,0.116l-0.177,0.117l-0.175,0.117l-0.175,0.117l-0.174,0.118l-0.174,0.118l-0.174,0.119l-0.172,0.119l-0.173,0.118l-0.172,0.12l-0.171,0.12l-0.17,0.12l-0.171,0.12l-0.17,0.121l-0.168,0.121l-0.169,0.122l-0.168,0.122l-0.168,0.122l-0.166,0.122l-0.166,0.123l-0.167,0.124l-0.165,0.123l-0.165,0.124l-0.164,0.124l-0.163,0.124l-0.164,0.126l-0.162,0.124l-0.162,0.126l-0.162,0.126l-0.16,0.126l-0.161,0.126l-0.16,0.127l-0.159,0.127l-0.158,0.128l-0.158,0.127l-0.158,0.128l-0.157,0.128l-0.157,0.129l-0.155,0.129l-0.155,0.13l-0.155,0.129l-0.154,0.13l-0.154,0.13l-0.153,0.131l-0.152,0.13l-0.152,0.132l-0.151,0.131l-0.151,0.132l-0.15,0.132l-0.15,0.132l-0.149,0.133l-0.148,0.132l-0.148,0.134l-0.147,0.133l-0.147,0.134l-0.145,0.134l-0.146,0.134l-0.145,0.135l-0.144,0.135l-0.144,0.136l-0.143,0.135l-0.142,0.136l-0.142,0.136l-0.142,0.136l-0.14,0.137l-0.14,0.137l-0.14,0.137l-0.138,0.138l-0.139,0.138l-0.137,0.138l-0.138,0.138l-0.136,0.139l-0.136,0.139l-0.135,0.139l-0.135,0.139l-0.134,0.14l-0.133,0.14l-0.134,0.141l-0.132,0.14l-0.131,0.141l-0.131,0.141l-0.13,0.141l-0.13,0.142l-0.129,0.142l-0.129,0.142l-0.128,0.142l-0.127,0.143l-0.127,0.143l-0.126,0.143l-0.125,0.144l-0.125,0.143l-0.124,0.144l-0.123,0.145l-0.123,0.144l-0.123,0.145l-0.121,0.145l-0.122,0.145l-0.12,0.145l-0.12,0.146l-0.118,0.146l-0.119,0.147l-0.118,0.146l-0.117,0.146l-0.117,0.148l-0.116,0.147l-0.115,0.147l-0.114,0.148l-0.114,0.148l-0.114,0.148l-0.112,0.148l-0.112,0.149l-0.112,0.148l-0.11,0.15l-0.111,0.149l-0.109,0.15l-0.109,0.149l-0.108,0.15l-0.108,0.15l-0.106,0.151l-0.107,0.151l-0.105,0.151l-0.105,0.151l-0.104,0.151l-0.104,0.152l-0.103,0.152l-0.102,0.152l-0.101,0.152l-0.101,0.152l-0.1,0.153l-0.1,0.154l-0.099,0.153l-0.098,0.153l-0.098,0.153l-0.096,0.154l-0.097,0.154l-0.095,0.154l-0.095,0.155l-0.094,0.154l-0.094,0.155l-0.093,0.156l-0.092,0.154l-0.092,0.156l-0.09,0.156l-0.091,0.156l-0.089,0.156l-0.089,0.156l-0.088,0.157l-0.087,0.156l-0.087,0.157l-0.086,0.157l-0.085,0.157l-0.085,0.158l-0.084,0.157l-0.084,0.159l-0.082,0.157l-0.082,0.159l-0.081,0.158l-0.081,0.159l-0.08,0.159l-0.079,0.159l-0.078,0.159l-0.078,0.159l-0.077,0.16l-0.076,0.16l-0.076,0.16l-0.075,0.16l-0.074,0.16l-0.074,0.161l-0.073,0.16l-0.072,0.161l-0.072,0.161l-0.071,0.161l-0.07,0.162l-0.069,0.162l-0.069,0.162l-0.067,0.161l-0.068,0.163l-0.066,0.162l-0.066,0.162l-0.065,0.163l-0.065,0.163l-0.063,0.163l-0.063,0.164l-0.062,0.163l-0.062,0.163l-0.061,0.164l-0.06,0.164l-0.06,0.164l-0.058,0.164l-0.058,0.165l-0.057,0.164l-0.057,0.165l-0.055,0.165l-0.055,0.165l-0.055,0.165l-0.053,0.166l-0.054,0.165l-0.052,0.166l-0.051,0.166l-0.051,0.166l-0.05,0.166l-0.049,0.167l-0.049,0.166l-0.047,0.167l-0.047,0.167l-0.047,0.167l-0.045,0.167l-0.045,0.167l-0.044,0.168l-0.044,0.168l-0.042,0.168l-0.042,0.167l-0.041,0.168l-0.04,0.169l-0.04,0.168l-0.039,0.169l-0.038,0.169l-0.038,0.169l-0.037,0.169l-0.036,0.169l-0.034,0.169l-0.035,0.17l-0.034,0.17l-0.033,0.17l-0.032,0.17l-0.031,0.17l-0.031,0.17l-0.03,0.17l-0.029,0.171l-0.028,0.171l-0.028,0.171l-0.027,0.171l-0.026,0.171l-0.025,0.172l-0.025,0.171l-0.024,0.171l-0.023,0.172l-0.022,0.172l-0.022,0.172l-0.021,0.172l-0.019,0.173l-0.02,0.172l-0.018,0.173l-0.018,0.173l-0.017,0.173l-0.016,0.173l-0.015,0.173l-0.015,0.174l-0.014,0.173l-0.013,0.174l-0.012,0.174l-0.012,0.174l-0.01,0.174l-0.01,0.174l-0.009,0.174l-0.008,0.175l-0.008,0.175l-0.007,0.174l-0.006,0.175l-0.005,0.176l-0.004,0.175l-0.004,0.175l-0.003,0.175l-0.002,0.176l-0.001,0.176l0,0.176l0,0.176l0.001,0.176l0.002,0.176l0.003,0.175l0.004,0.175l0.004,0.175l0.005,0.175l0.006,0.176l0.007,0.175l0.008,0.174l0.008,0.175l0.009,0.174l0.01,0.174l0.01,0.175l0.012,0.173l0.012,0.174l0.013,0.174l0.014,0.174l0.015,0.173l0.015,0.173l0.016,0.173l0.017,0.173l0.036,0.345l0.02,0.173l0.019,0.172l0.021,0.173l0.022,0.172l0.022,0.172l0.023,0.172l0.049,0.343l0.025,0.171l0.026,0.171l0.027,0.171l0.028,0.171l0.028,0.171l0.029,0.17l0.03,0.171l0.031,0.17l0.031,0.171l0.032,0.17l0.033,0.169l0.034,0.17l0.035,0.17l0.034,0.169l0.036,0.169l0.037,0.169l0.038,0.169l0.038,0.169l0.039,0.169l0.04,0.168l0.04,0.168l0.041,0.169l0.042,0.168l0.042,0.167l0.044,0.168l0.044,0.167l0.045,0.168l0.045,0.167l0.047,0.167l0.047,0.167l0.047,0.167l0.049,0.166l0.049,0.167l0.05,0.166l0.051,0.166l0.051,0.166l0.052,0.166l0.054,0.165l0.053,0.166l0.055,0.165l0.055,0.165l0.055,0.165l0.057,0.165l0.057,0.164l0.058,0.165l0.058,0.164l0.06,0.164l0.06,0.164l0.061,0.164l0.124,0.327l0.063,0.163l0.063,0.163l0.065,0.163l0.065,0.162l0.066,0.163l0.066,0.162l0.068,0.162l0.067,0.162l0.069,0.163l0.069,0.161l0.07,0.161l0.071,0.162l0.072,0.161l0.072,0.16l0.073,0.162l0.074,0.16l0.074,0.16l0.075,0.16l0.152,0.32l0.077,0.16l0.156,0.318l0.079,0.159l0.08,0.159l0.081,0.159l0.081,0.158l0.164,0.317l0.084,0.158l0.084,0.157l0.085,0.158l0.085,0.157l0.086,0.157l0.087,0.157l0.087,0.157l0.088,0.156l0.089,0.156l0.089,0.156l0.181,0.312l0.092,0.156l0.092,0.155l0.093,0.155l0.188,0.309l0.095,0.155l0.095,0.154l0.097,0.154l0.096,0.154l0.098,0.153l0.098,0.154l0.099,0.153l0.1,0.153l0.1,0.152l0.101,0.153l0.101,0.152l0.102,0.152l0.103,0.152l0.104,0.152l0.104,0.151l0.105,0.151l0.105,0.151l0.107,0.151l0.106,0.15l0.216,0.301l0.109,0.149l0.109,0.15l0.111,0.149l0.11,0.149l0.112,0.149l0.112,0.149l0.112,0.148l0.114,0.149l0.114,0.147l0.114,0.148l0.115,0.148l0.116,0.147l0.117,0.147l0.117,0.146l0.118,0.147l0.237,0.292l0.24,0.291l0.122,0.146l0.121,0.145l0.123,0.144l0.123,0.144l0.123,0.145l0.124,0.143l0.125,0.144l0.125,0.144l0.126,0.143l0.127,0.143l0.255,0.285l0.129,0.142l0.129,0.142l0.26,0.283l0.131,0.141l0.131,0.141l0.132,0.141l0.134,0.14l0.133,0.14l0.134,0.139l0.135,0.14l0.271,0.278l0.136,0.139l0.138,0.138l0.137,0.139l0.139,0.137l0.138,0.138l0.14,0.137l0.14,0.137l0.14,0.136l0.142,0.137l0.142,0.136l0.142,0.136l0.143,0.136l0.144,0.135l0.144,0.135l0.145,0.134l0.146,0.135l0.145,0.134l0.147,0.134l0.147,0.133l0.148,0.134l0.148,0.132l0.149,0.133l0.15,0.132l0.15,0.132l0.151,0.132l0.151,0.132l0.152,0.131l0.152,0.13l0.153,0.131l0.154,0.13l0.154,0.13l0.155,0.13l0.155,0.129l0.155,0.129l0.157,0.128l0.157,0.129l0.158,0.128l0.158,0.127l0.158,0.128l0.159,0.127l0.16,0.127l0.161,0.126l0.16,0.126l0.324,0.251l0.162,0.126l0.327,0.249l0.164,0.124l0.165,0.124l0.165,0.124l0.333,0.245l0.166,0.123l0.168,0.122l0.168,0.122l0.169,0.122l0.168,0.121l0.17,0.12l0.171,0.121l0.17,0.12l0.171,0.12l0.345,0.239l0.172,0.119l0.174,0.118l0.174,0.118l0.174,0.118l0.175,0.117l0.175,0.117l0.177,0.117l0.176,0.116l0.177,0.116l0.178,0.116l0.178,0.115l0.178,0.115l0.179,0.115l0.18,0.114l0.18,0.114l0.181,0.114l0.181,0.113l0.181,0.113l0.182,0.112l0.183,0.112l0.183,0.112l0.184,0.111l0.368,0.222l0.371,0.22l0.187,0.11l0.186,0.109l0.188,0.109l0.187,0.108l0.377,0.216l0.189,0.107l0.189,0.107l0.19,0.106l0.191,0.106l0.383,0.211l0.192,0.105l0.192,0.105l0.193,0.104l0.387,0.208l0.39,0.205l0.195,0.102l0.196,0.102l0.196,0.102l0.197,0.101l0.198,0.101l0.197,0.1l0.198,0.1l0.199,0.099l0.199,0.1l0.4,0.197l0.2,0.098l0.201,0.097l0.201,0.097l0.202,0.097l0.202,0.096l0.203,0.096l0.203,0.095l0.408,0.19l0.204,0.094l0.411,0.188l0.206,0.093l0.206,0.093l0.207,0.092l0.207,0.091l0.207,0.092l0.209,0.091l0.208,0.091l0.209,0.089l0.209,0.09l0.21,0.09l0.421,0.177l0.211,0.088l0.212,0.088l0.211,0.087l0.213,0.087l0.213,0.086l0.213,0.086l0.214,0.085l0.213,0.085l0.215,0.085l0.215,0.084l0.215,0.083l0.216,0.084l0.216,0.083l0.216,0.082l0.217,0.082l0.218,0.082l0.218,0.081l0.218,0.08l0.218,0.08l0.219,0.08l0.219,0.079l0.22,0.079l0.22,0.079l0.221,0.078l0.221,0.077l0.221,0.077l0.222,0.077l0.222,0.076l0.222,0.076l0.223,0.075l0.224,0.075l0.447,0.148l0.225,0.073l0.225,0.073l0.224,0.073l0.226,0.072l0.226,0.072l0.227,0.071l0.226,0.071l0.227,0.07l0.456,0.139l0.228,0.069l0.229,0.068l0.228,0.068l0.459,0.135l0.461,0.132l0.23,0.065l0.463,0.13l0.232,0.064l0.232,0.064l0.233,0.063l0.232,0.063l0.234,0.062l0.467,0.123l0.235,0.061l0.469,0.12l0.235,0.059l0.472,0.117l0.237,0.058l0.236,0.058l0.238,0.057l0.237,0.056l0.237,0.055l0.239,0.056l0.238,0.055l0.239,0.055l0.239,0.054l0.239,0.053l0.24,0.053l0.24,0.052l0.24,0.052l0.241,0.052l0.482,0.101l0.242,0.05l0.242,0.049l0.242,0.049l0.243,0.049l0.486,0.095l0.243,0.047l0.244,0.046l0.244,0.046l0.245,0.045l0.489,0.089l0.246,0.044l0.245,0.043l0.247,0.043l0.246,0.043l0.247,0.041l0.247,0.041l0.247,0.041l0.495,0.08l0.496,0.078l0.249,0.038l0.248,0.037l0.25,0.037l0.25,0.037l0.499,0.072l0.251,0.034l0.25,0.035l0.251,0.034l0.251,0.033l0.252,0.033l0.503,0.064l0.253,0.031l0.252,0.031l0.253,0.03l0.253,0.029l0.254,0.029l0.253,0.029l0.254,0.028l0.254,0.027l0.254,0.027l0.255,0.026l0.255,0.026l0.255,0.025l0.256,0.025l0.255,0.024l0.257,0.024l0.255,0.023l0.257,0.023l0.514,0.042l0.257,0.021l0.258,0.021l0.257,0.019l0.258,0.019l0.258,0.019l0.517,0.036l0.259,0.017l0.259,0.016l0.26,0.016l0.259,0.015l0.26,0.015l0.26,0.014l0.261,0.014l0.26,0.012l0.522,0.025l0.261,0.011l0.261,0.011l0.262,0.01l0.262,0.009l0.262,0.009l0.262,0.009l0.526,0.015l0.526,0.013l0.263,0.005l0.264,0.005l0.264,0.005l0.264,0.003l0.264,0.004l0.529,0.004l0.265,0.001l0.265,0.002l0.53,0l0.266,-0.002l0.265,-0.001l0.264,-0.002l0.264,-0.002l0.265,-0.004l0.263,-0.003l0.264,-0.005l0.264,-0.005l0.263,-0.005l0.263,-0.007l0.264,-0.006l0.262,-0.008l0.263,-0.007l0.262,-0.009l0.263,-0.009l0.261,-0.009l0.262,-0.01l0.261,-0.011l0.262,-0.011l0.26,-0.012l0.261,-0.013l0.261,-0.012l0.261,-0.014l0.259,-0.014l0.26,-0.015l0.26,-0.015l0.259,-0.016l0.259,-0.016l0.259,-0.017l0.259,-0.018l0.258,-0.018l0.258,-0.019l0.258,-0.019l0.258,-0.019l0.258,-0.021l0.257,-0.021l0.256,-0.021l0.257,-0.021l0.257,-0.023l0.256,-0.023l0.256,-0.024l0.256,-0.024l0.255,-0.025l0.255,-0.025l0.255,-0.026l0.255,-0.026l0.254,-0.027l0.254,-0.027l0.254,-0.028l0.254,-0.029l0.253,-0.029l0.253,-0.029l0.253,-0.03l0.252,-0.031l0.253,-0.031l0.252,-0.032l0.251,-0.032l0.252,-0.033l0.251,-0.033l0.251,-0.034l0.251,-0.035l0.25,-0.034l0.25,-0.036l0.25,-0.036l0.25,-0.037l0.249,-0.037l0.249,-0.037l0.248,-0.038l0.248,-0.039l0.249,-0.039l0.247,-0.04l0.248,-0.04l0.247,-0.041l0.247,-0.041l0.247,-0.041l0.245,-0.043l0.247,-0.043l0.245,-0.043l0.246,-0.044l0.245,-0.044l0.244,-0.045l0.245,-0.045l0.244,-0.046l0.244,-0.046l0.244,-0.047l0.242,-0.048l0.243,-0.047l0.243,-0.049l0.243,-0.049l0.241,-0.049l0.242,-0.05l0.241,-0.051l0.242,-0.05l0.24,-0.052l0.241,-0.052l0.239,-0.052l0.24,-0.053l0.24,-0.053l0.238,-0.054l0.239,-0.055l0.239,-0.055l0.238,-0.056l0.238,-0.055l0.237,-0.056l0.237,-0.057l0.236,-0.058l0.237,-0.058l0.236,-0.058l0.236,-0.059l0.235,-0.059l0.235,-0.06l0.235,-0.06l0.234,-0.061l0.234,-0.061l0.233,-0.062l0.234,-0.062l0.232,-0.063l0.233,-0.063l0.232,-0.064l0.232,-0.064l0.232,-0.065l0.231,-0.065l0.231,-0.065l0.23,-0.066l0.23,-0.066l0.23,-0.067l0.229,-0.068l0.229,-0.068l0.229,-0.068l0.227,-0.069l0.228,-0.07l0.228,-0.069l0.227,-0.07l0.227,-0.071l0.226,-0.071l0.226,-0.072l0.226,-0.072l0.225,-0.073l0.225,-0.073l0.224,-0.073l0.224,-0.074l0.224,-0.074l0.223,-0.075l0.223,-0.075l0.223,-0.076l0.222,-0.076l0.221,-0.077l0.222,-0.077l0.221,-0.077l0.22,-0.078l0.22,-0.079l0.22,-0.079l0.219,-0.079l0.219,-0.08l0.219,-0.08l0.218,-0.08l0.218,-0.081l0.217,-0.082l0.217,-0.082l0.216,-0.082l0.217,-0.083l0.215,-0.084l0.215,-0.083l0.215,-0.084l0.215,-0.085l0.214,-0.085l0.213,-0.085l0.214,-0.086l0.212,-0.086l0.213,-0.087l0.212,-0.087l0.211,-0.088l0.211,-0.088l0.211,-0.089l0.21,-0.088l0.21,-0.09l0.209,-0.09l0.209,-0.089l0.209,-0.091l0.208,-0.091l0.207,-0.092l0.207,-0.091l0.207,-0.092l0.207,-0.093l0.206,-0.093l0.205,-0.094l0.205,-0.094l0.204,-0.094l0.204,-0.095l0.204,-0.095l0.203,-0.095l0.203,-0.096l0.202,-0.096l0.202,-0.097l0.201,-0.097l0.202,-0.097l0.2,-0.098l0.2,-0.099l0.2,-0.098l0.199,-0.1l0.198,-0.099l0.198,-0.1l0.198,-0.1l0.197,-0.101l0.197,-0.101l0.197,-0.102l0.195,-0.102l0.195,-0.102l0.195,-0.103l0.195,-0.102l0.194,-0.104l0.193,-0.104l0.193,-0.104l0.193,-0.105l0.192,-0.105l0.191,-0.105l0.191,-0.106l0.191,-0.106l0.19,-0.106l0.19,-0.107l0.189,-0.107l0.188,-0.108l0.189,-0.108l0.187,-0.108l0.187,-0.109l0.187,-0.109l0.186,-0.11l0.185,-0.11l0.186,-0.11l0.184,-0.111l0.185,-0.111l0.183,-0.111l0.184,-0.112l0.182,-0.112l0.182,-0.112l0.182,-0.113l0.181,-0.113l0.181,-0.114l0.18,-0.114l0.179,-0.114l0.179,-0.115l0.179,-0.115l0.178,-0.115l0.178,-0.116l0.176,-0.116l0.177,-0.116l0.176,-0.117l0.176,-0.117l0.174,-0.117l0.175,-0.118l0.174,-0.118l0.173,-0.118l0.173,-0.119l0.172,-0.12l0.172,-0.119l0.171,-0.12l0.171,-0.12l0.17,-0.121l0.169,-0.12l0.17,-0.121l0.168,-0.122l0.168,-0.122l0.167,-0.122l0.167,-0.123l0.167,-0.122l0.166,-0.123l0.165,-0.124l0.165,-0.124l0.164,-0.124l0.164,-0.125l0.163,-0.124l0.162,-0.126l0.162,-0.125l0.162,-0.126l0.16,-0.126l0.161,-0.126l0.16,-0.127l0.159,-0.127l0.159,-0.128l0.158,-0.127l0.157,-0.128l0.157,-0.129l0.157,-0.128l0.155,-0.129l0.156,-0.129l0.154,-0.13l0.155,-0.13l0.153,-0.13l0.153,-0.131l0.153,-0.13l0.152,-0.131l0.15,-0.132l0.151,-0.132l0.15,-0.132l0.15,-0.132l0.149,-0.133l0.148,-0.132l0.148,-0.134l0.147,-0.133l0.147,-0.134l0.146,-0.134l0.145,-0.135l0.145,-0.134l0.144,-0.135l0.144,-0.136l0.143,-0.135l0.142,-0.136l0.142,-0.136l0.142,-0.137l0.14,-0.136l0.141,-0.137l0.139,-0.137l0.139,-0.138l0.138,-0.137l0.138,-0.139l0.137,-0.138l0.136,-0.139l0.137,-0.139l0.135,-0.139l0.134,-0.14l0.134,-0.139l0.134,-0.14l0.133,-0.14l0.132,-0.141l0.132,-0.141l0.131,-0.141l0.13,-0.141l0.129,-0.142l0.13,-0.142l0.128,-0.142l0.128,-0.143l0.127,-0.142l0.127,-0.143l0.126,-0.143l0.125,-0.144l0.125,-0.143l0.124,-0.144l0.124,-0.145l0.123,-0.144l0.122,-0.145l0.122,-0.144l0.121,-0.146l0.12,-0.145l0.12,-0.146l0.119,-0.146l0.119,-0.146l0.117,-0.147l0.117,-0.146l0.117,-0.147l0.116,-0.147l0.115,-0.148l0.114,-0.148l0.115,-0.147l0.113,-0.149l0.113,-0.148l0.112,-0.149l0.111,-0.149l0.111,-0.149l0.11,-0.149l0.109,-0.15l0.109,-0.149l0.108,-0.15l0.108,-0.151l0.107,-0.15l0.106,-0.151l0.105,-0.151l0.105,-0.151l0.105,-0.151l0.103,-0.152l0.103,-0.152l0.102,-0.152l0.102,-0.152l0.1,-0.153l0.101,-0.152l0.099,-0.153l0.099,-0.153l0.099,-0.154l0.097,-0.153l0.097,-0.154l0.096,-0.154l0.096,-0.154l0.095,-0.155l0.094,-0.154l0.093,-0.155l0.093,-0.155l0.093,-0.155l0.091,-0.156l0.091,-0.156l0.09,-0.156l0.089,-0.156l0.089,-0.156l0.088,-0.156l0.088,-0.157l0.087,-0.157l0.085,-0.157l0.086,-0.157l0.084,-0.158l0.084,-0.157l0.084,-0.158l0.082,-0.158l0.083,-0.159l0.081,-0.158l0.08,-0.159l0.08,-0.159l0.079,-0.159l0.078,-0.159l0.079,-0.159l0.077,-0.16l0.076,-0.16l0.076,-0.16l0.074,-0.16l0.075,-0.16l0.073,-0.16l0.073,-0.162l0.072,-0.16l0.072,-0.161l0.071,-0.162l0.07,-0.161l0.069,-0.162l0.069,-0.161l0.068,-0.163l0.067,-0.162l0.067,-0.162l0.065,-0.163l0.066,-0.162l0.064,-0.163l0.063,-0.163l0.064,-0.163l0.062,-0.164l0.062,-0.163l0.06,-0.164l0.06,-0.164l0.06,-0.164l0.058,-0.164l0.058,-0.165l0.058,-0.164l0.056,-0.165l0.056,-0.165l0.055,-0.165l0.054,-0.165l0.054,-0.166l0.053,-0.165l0.052,-0.166l0.051,-0.166l0.051,-0.166l0.05,-0.166l0.049,-0.167l0.049,-0.166l0.048,-0.167l0.047,-0.167l0.046,-0.167l0.046,-0.167l0.044,-0.168l0.044,-0.167l0.044,-0.168l0.042,-0.167l0.043,-0.168l0.041,-0.169l0.04,-0.168l0.04,-0.168l0.039,-0.169l0.038,-0.169l0.037,-0.169l0.037,-0.169l0.036,-0.169l0.035,-0.169l0.035,-0.17l0.033,-0.17l0.033,-0.169l0.032,-0.17l0.031,-0.171l0.031,-0.17l0.03,-0.171l0.029,-0.17l0.029,-0.171l0.027,-0.171l0.027,-0.171l0.026,-0.171l0.026,-0.171l0.024,-0.172l0.024,-0.171l0.023,-0.172l0.023,-0.172l0.021,-0.172l0.021,-0.173l0.02,-0.172l0.019,-0.173l0.018,-0.172l0.018,-0.173l0.017,-0.173l0.016,-0.173l0.015,-0.173l0.016,-0.173l0.013,-0.174l0.013,-0.174l0.012,-0.174l0.012,-0.173l0.01,-0.175l0.01,-0.174l0.01,-0.174l0.008,-0.175l0.007,-0.174l0.007,-0.175l0.006,-0.176l0.005,-0.175l0.005,-0.175l0.003,-0.175l0.003,-0.175l0.002,-0.176l0.001,-0.176l0.001,-0.176l-0.001,-0.176l-0.001,-0.175l-0.002,-0.177l-0.003,-0.175l-0.003,-0.175l-0.005,-0.175l-0.005,-0.176l-0.006,-0.175l-0.007,-0.175l-0.007,-0.174l-0.008,-0.175l-0.01,-0.174l-0.01,-0.174l-0.01,-0.174l-0.012,-0.174l-0.012,-0.174l-0.013,-0.174l-0.013,-0.173l-0.016,-0.174l-0.015,-0.173l-0.016,-0.173l-0.017,-0.173l-0.018,-0.173l-0.018,-0.173l-0.019,-0.172l-0.02,-0.173l-0.021,-0.172l-0.021,-0.172l-0.023,-0.172l-0.023,-0.172l-0.024,-0.171l-0.024,-0.172l-0.026,-0.171l-0.026,-0.171l-0.027,-0.171l-0.027,-0.171l-0.029,-0.171l-0.029,-0.171l-0.03,-0.17l-0.031,-0.17l-0.031,-0.17l-0.032,-0.17l-0.033,-0.17l-0.033,-0.17l-0.035,-0.17l-0.035,-0.169l-0.036,-0.169l-0.037,-0.169l-0.037,-0.169l-0.038,-0.169l-0.039,-0.169l-0.04,-0.168l-0.04,-0.169l-0.041,-0.167l-0.043,-0.168l-0.042,-0.168l-0.044,-0.168l-0.044,-0.168l-0.044,-0.167l-0.046,-0.167l-0.046,-0.167l-0.047,-0.167l-0.048,-0.167l-0.049,-0.166l-0.049,-0.167l-0.05,-0.166l-0.051,-0.166l-0.051,-0.166l-0.052,-0.166l-0.053,-0.165l-0.054,-0.166l-0.054,-0.165l-0.055,-0.165l-0.056,-0.165l-0.056,-0.164l-0.058,-0.165l-0.058,-0.165l-0.058,-0.164l-0.06,-0.164l-0.06,-0.164l-0.06,-0.164l-0.062,-0.163l-0.062,-0.163l-0.064,-0.164l-0.063,-0.163l-0.064,-0.163l-0.066,-0.163l-0.065,-0.162l-0.067,-0.162l-0.067,-0.163l-0.068,-0.161l-0.069,-0.162l-0.069,-0.162l-0.07,-0.162l-0.071,-0.161l-0.072,-0.161l-0.072,-0.161l-0.073,-0.16l-0.073,-0.161l-0.075,-0.16l-0.074,-0.16l-0.076,-0.16l-0.076,-0.16l-0.077,-0.16l-0.079,-0.159l-0.078,-0.159l-0.079,-0.159l-0.08,-0.159l-0.08,-0.159l-0.081,-0.158l-0.083,-0.159l-0.082,-0.157l-0.084,-0.159l-0.084,-0.157l-0.084,-0.158l-0.086,-0.157l-0.085,-0.157l-0.087,-0.157l-0.088,-0.157l-0.088,-0.156l-0.089,-0.156l-0.089,-0.156l-0.09,-0.156l-0.091,-0.156l-0.091,-0.156l-0.093,-0.154l-0.093,-0.156l-0.093,-0.155l-0.094,-0.154l-0.095,-0.155l-0.096,-0.154l-0.096,-0.154l-0.097,-0.154l-0.097,-0.153l-0.099,-0.153l-0.099,-0.154l-0.099,-0.153l-0.101,-0.153l-0.1,-0.152l-0.102,-0.152l-0.102,-0.152l-0.103,-0.152l-0.103,-0.152l-0.105,-0.151l-0.105,-0.151l-0.105,-0.151l-0.106,-0.151l-0.107,-0.151l-0.108,-0.15l-0.108,-0.15l-0.109,-0.149l-0.109,-0.15l-0.11,-0.15l-0.111,-0.149l-0.111,-0.148l-0.112,-0.149l-0.113,-0.148l-0.113,-0.148l-0.115,-0.148l-0.114,-0.148l-0.115,-0.147l-0.116,-0.147l-0.117,-0.148l-0.117,-0.146l-0.117,-0.147l-0.119,-0.146l-0.119,-0.146l-0.12,-0.146l-0.12,-0.145l-0.121,-0.145l-0.122,-0.145l-0.122,-0.145l-0.123,-0.144l-0.124,-0.145l-0.124,-0.144l-0.125,-0.143l-0.125,-0.144l-0.126,-0.143l-0.127,-0.143l-0.127,-0.143l-0.128,-0.142l-0.128,-0.142l-0.13,-0.142l-0.129,-0.142l-0.13,-0.141l-0.131,-0.141l-0.132,-0.141l-0.132,-0.14l-0.133,-0.141l-0.134,-0.14l-0.134,-0.14l-0.134,-0.139l-0.135,-0.139l-0.137,-0.139l-0.136,-0.139l-0.137,-0.138l-0.138,-0.138l-0.138,-0.138l-0.139,-0.138l-0.139,-0.137l-0.141,-0.137l-0.14,-0.137l-0.142,-0.136l-0.142,-0.136l-0.142,-0.136l-0.143,-0.135l-0.144,-0.136l-0.144,-0.135l-0.145,-0.135l-0.145,-0.134l-0.146,-0.134l-0.147,-0.134l-0.147,-0.133l-0.148,-0.134l-0.148,-0.132l-0.149,-0.133l-0.15,-0.132l-0.15,-0.132l-0.151,-0.132l-0.15,-0.131l-0.152,-0.131l-0.153,-0.131l-0.153,-0.131l-0.153,-0.13l-0.155,-0.13l-0.154,-0.129l-0.156,-0.13l-0.155,-0.129l-0.157,-0.129l-0.157,-0.128l-0.157,-0.128l-0.158,-0.127l-0.159,-0.128l-0.159,-0.127l-0.16,-0.127l-0.161,-0.126l-0.16,-0.126l-0.162,-0.126l-0.162,-0.126l-0.162,-0.124l-0.163,-0.126l-0.164,-0.124l-0.164,-0.124l-0.165,-0.124l-0.165,-0.123l-0.166,-0.124l-0.167,-0.123l-0.166,-0.122l-0.168,-0.122l-0.168,-0.122l-0.168,-0.122l-0.17,-0.121l-0.169,-0.121l-0.17,-0.12l-0.171,-0.12l-0.171,-0.12l-0.172,-0.12l-0.172,-0.118l-0.173,-0.119l-0.173,-0.119l-0.174,-0.118l-0.175,-0.118l-0.174,-0.117l-0.176,-0.117l-0.176,-0.117l-0.177,-0.116l-0.176,-0.116l-0.178,-0.116l-0.178,-0.116l-0.179,-0.114l-0.179,-0.115l-0.179,-0.114l-0.18,-0.114l-0.181,-0.114l-0.181,-0.113l-0.182,-0.113l-0.182,-0.112l-0.182,-0.112l-0.184,-0.112l-0.183,-0.111l-0.185,-0.111l-0.184,-0.111l-0.186,-0.11l-0.185,-0.11l-0.186,-0.109l-0.187,-0.11l-0.187,-0.108l-0.187,-0.109l-0.189,-0.108l-0.188,-0.107l-0.189,-0.107l-0.19,-0.108l-0.19,-0.106l-0.191,-0.106l-0.191,-0.106l-0.191,-0.106l-0.192,-0.104l-0.193,-0.105l-0.193,-0.104l-0.193,-0.104l-0.194,-0.103l-0.195,-0.103l-0.195,-0.103l-0.195,-0.103l-0.195,-0.101l-0.197,-0.101l-0.197,-0.102l-0.197,-0.1l-0.198,-0.101l-0.198,-0.1l-0.198,-0.1l-0.199,-0.099l-0.2,-0.098l-0.2,-0.098l-0.2,-0.098l-0.202,-0.098l-0.201,-0.097l-0.202,-0.097l-0.202,-0.096l-0.203,-0.096l-0.203,-0.095l-0.204,-0.095l-0.204,-0.096l-0.204,-0.093l-0.205,-0.094l-0.205,-0.094l-0.206,-0.093l-0.207,-0.092l-0.207,-0.093l-0.207,-0.092l-0.207,-0.091l-0.208,-0.091l-0.209,-0.091l-0.209,-0.09l-0.209,-0.089l-0.21,-0.09l-0.21,-0.088l-0.211,-0.089l-0.211,-0.088l-0.211,-0.087l-0.213,-0.088l-0.212,-0.086l-0.212,-0.086l-0.214,-0.086l-0.213,-0.086l-0.214,-0.085l-0.215,-0.084l-0.215,-0.084l-0.215,-0.085l-0.215,-0.082l-0.217,-0.083l-0.216,-0.083l-0.217,-0.082l-0.217,-0.081l-0.218,-0.081l-0.218,-0.081l-0.219,-0.08l-0.219,-0.08l-0.219,-0.079l-0.22,-0.079l-0.22,-0.078l-0.22,-0.079l-0.221,-0.077l-0.222,-0.078l-0.221,-0.076l-0.222,-0.076l-0.223,-0.076l-0.223,-0.075l-0.223,-0.075l-0.224,-0.074l-0.224,-0.074l-0.224,-0.074l-0.225,-0.073l-0.225,-0.072l-0.226,-0.072l-0.226,-0.072l-0.226,-0.071l-0.227,-0.071l-0.227,-0.07l-0.228,-0.07l-0.228,-0.069l-0.227,-0.069l-0.229,-0.068l-0.229,-0.068l-0.229,-0.068l-0.23,-0.066l-0.23,-0.067l-0.23,-0.066l-0.231,-0.066l-0.231,-0.065l-0.232,-0.064l-0.232,-0.064l-0.232,-0.064l-0.233,-0.063l-0.232,-0.063l-0.234,-0.062l-0.233,-0.062l-0.234,-0.061l-0.234,-0.061l-0.235,-0.06l-0.235,-0.06l-0.235,-0.059l-0.236,-0.059l-0.236,-0.059l-0.237,-0.057l-0.236,-0.057l-0.237,-0.058l-0.237,-0.056l-0.238,-0.056l-0.238,-0.055l-0.239,-0.055l-0.239,-0.054l-0.238,-0.054l-0.24,-0.053l-0.24,-0.054l-0.24,-0.052l-0.24,-0.052l-0.24,-0.051l-0.242,-0.051l-0.241,-0.051l-0.242,-0.05l-0.241,-0.049l-0.243,-0.049l-0.243,-0.048l-0.243,-0.048l-0.242,-0.048l-0.244,-0.047l-0.244,-0.046l-0.244,-0.046l-0.245,-0.045l-0.244,-0.045l-0.245,-0.045l-0.246,-0.043l-0.245,-0.043l-0.247,-0.043l-0.245,-0.043l-0.247,-0.041l-0.247,-0.042l-0.247,-0.04l-0.248,-0.04l-0.247,-0.04l-0.249,-0.039l-0.248,-0.039l-0.248,-0.038l-0.25,-0.037l-0.248,-0.037l-0.25,-0.037l-0.25,-0.036l-0.25,-0.035l-0.25,-0.035l-0.251,-0.035l-0.251,-0.033l-0.251,-0.034l-0.252,-0.032l-0.251,-0.033l-0.252,-0.032l-0.253,-0.031l-0.252,-0.03l-0.253,-0.03l-0.253,-0.03l-0.253,-0.029l-0.254,-0.029l-0.254,-0.028l-0.254,-0.027l-0.254,-0.027l-0.255,-0.026l-0.255,-0.026l-0.255,-0.025l-0.255,-0.025l-0.256,-0.024l-0.256,-0.024l-0.256,-0.022l-0.257,-0.023l-0.257,-0.022l-0.256,-0.022l-0.257,-0.02l-0.258,-0.021l-0.258,-0.019l-0.258,-0.02l-0.258,-0.018l-0.258,-0.018l-0.259,-0.018l-0.259,-0.016l-0.259,-0.017l-0.259,-0.016l-0.26,-0.015l-0.26,-0.015l-0.26,-0.014l-0.26,-0.013l-0.261,-0.014l-0.261,-0.012l-0.26,-0.012l-0.261,-0.011l-0.262,-0.01l-0.262,-0.011l-0.261,-0.009l-0.263,-0.009l-0.262,-0.008l-0.263,-0.009l-0.262,-0.007l-0.264,-0.006l-0.263,-0.007l-0.263,-0.005l-0.264,-0.005l-0.264,-0.004l-0.263,-0.004l-0.265,-0.003l-0.264,-0.003l-0.264,-0.002l-0.265,-0.002l-0.265,0l-0.266,-0.001l-0.265,0.001Z"/></g><clipPath id="_clip4"><rect x="414.992" y="334.313" width="154.795" height="116.531"/></clipPath><g clip-path="url(#_clip4)"><rect x="414.992" y="334.313" width="154.795" height="116.096" style="stroke:#000;stroke-width:3.47px;stroke-linecap:butt;stroke-linejoin:miter;"/></g></g><path d="M171.055,99.344c-3.537,0 -6.071,0.355 -7.602,1.066c-1.531,0.711 -2.479,1.759 -2.844,3.145c-0.364,1.385 -0.547,3.646 -0.547,6.781l0,58.789l-5.031,0l-48.508,-57.641l0,40.852c0,3.099 0.192,5.35 0.575,6.754c0.382,1.403 1.358,2.479 2.925,3.226c1.568,0.748 4.102,1.121 7.602,1.121l0,5.032l-27.563,0l0.001,-5.032c3.281,0 5.66,-0.373 7.136,-1.121c1.477,-0.747 2.388,-1.823 2.735,-3.226c0.346,-1.404 0.519,-3.655 0.519,-6.754l0,-37.844c0,-3.062 -0.082,-5.359 -0.246,-6.89c-0.164,-1.532 -0.556,-2.872 -1.176,-4.02c-0.62,-1.148 -1.631,-2.078 -3.035,-2.789c-1.404,-0.711 -3.345,-1.194 -5.824,-1.449l0,-5.032l21.601,0l42.219,49.875l0,-33.851c0,-2.771 -0.191,-4.895 -0.574,-6.371c-0.383,-1.477 -1.331,-2.616 -2.844,-3.418c-1.513,-0.802 -3.91,-1.203 -7.191,-1.203l0,-5.032l27.672,0l0,5.032Z" style="fill-rule:nonzero;"/><path d="M226.016,144.406l-33.633,0c0.036,0.693 0.137,2.17 0.301,4.43c0.164,2.26 0.674,4.575 1.531,6.945c0.857,2.37 2.333,4.366 4.43,5.989c2.096,1.622 4.912,2.433 8.449,2.433c1.932,0 4.265,-0.492 7,-1.476c2.734,-0.985 5.104,-2.881 7.109,-5.688l4.266,2.898c-4.302,6.891 -11.138,10.336 -20.508,10.336c-4.193,0 -8.012,-0.601 -11.457,-1.804c-3.445,-1.203 -6.371,-2.88 -8.777,-5.032c-2.407,-2.151 -4.248,-4.684 -5.524,-7.601c-1.276,-2.917 -1.914,-6.052 -1.914,-9.406c0,-4.412 1.066,-8.495 3.199,-12.25c2.133,-3.756 5.186,-6.745 9.16,-8.969c3.974,-2.224 8.513,-3.336 13.618,-3.336c4.994,0 9.214,1.076 12.66,3.227c3.445,2.151 5.988,4.94 7.629,8.367c1.64,3.427 2.461,7.073 2.461,10.937Zm-13.563,-5.031c0,-8.313 -3.281,-12.469 -9.844,-12.469c-3.172,0 -5.605,1.149 -7.3,3.446c-1.696,2.296 -2.635,5.304 -2.817,9.023l19.961,0Z" style="fill-rule:nonzero;"/><path d="M319.586,128.711c-1.677,0 -2.935,0.182 -3.774,0.547c-0.838,0.364 -1.576,1.03 -2.214,1.996c-0.638,0.966 -1.541,2.689 -2.707,5.168l-16.133,33.851l-4.703,0l-14.93,-29.476l-14.547,29.476l-4.703,0l-15.805,-33.742c-1.567,-3.39 -2.825,-5.532 -3.773,-6.426c-0.948,-0.893 -2.662,-1.358 -5.141,-1.394l0,-5.031l28.11,0l0,5.031c-0.256,0 -0.493,-0.009 -0.711,-0.027c-0.219,-0.019 -0.493,-0.028 -0.821,-0.028c-2.734,0 -4.101,0.912 -4.101,2.735c0,0.948 0.346,2.151 1.039,3.609l8.586,18.484l14.82,-29.804l3.883,0l15.039,29.804l8.039,-17.062c1.13,-2.552 1.695,-4.229 1.695,-5.031c0,-1.204 -0.483,-1.951 -1.449,-2.243c-0.966,-0.291 -2.616,-0.437 -4.949,-0.437l0,-5.031l19.25,0l0,5.031Z" style="fill-rule:nonzero;"/><path d="M373.125,157.367c-4.411,8.604 -11.503,12.906 -21.273,12.906c-4.558,0 -8.869,-0.929 -12.934,-2.789c-4.065,-1.859 -7.328,-4.557 -9.789,-8.093c-2.461,-3.537 -3.691,-7.675 -3.691,-12.414c0,-3.282 0.665,-6.417 1.996,-9.407c1.33,-2.989 3.254,-5.687 5.769,-8.093c2.516,-2.407 5.496,-4.275 8.942,-5.606c3.445,-1.331 7.136,-1.996 11.074,-1.996c5.031,0 9.461,0.993 13.289,2.98c3.828,1.987 5.742,4.731 5.742,8.231c0,1.604 -0.602,2.971 -1.805,4.101c-1.203,1.131 -2.588,1.696 -4.156,1.696c-1.495,0 -2.643,-0.347 -3.445,-1.039c-0.802,-0.693 -1.331,-1.404 -1.586,-2.133c-0.255,-0.729 -0.62,-2.024 -1.094,-3.883c-0.474,-1.786 -1.258,-3.053 -2.351,-3.801c-1.094,-0.747 -2.625,-1.121 -4.594,-1.121c-3.318,0 -6.262,1.231 -8.832,3.692c-2.571,2.461 -3.856,7.063 -3.856,13.808c0,3.61 0.52,6.927 1.559,9.953c1.039,3.026 2.68,5.424 4.922,7.192c2.242,1.768 4.985,2.652 8.23,2.652c3.61,0 6.362,-0.893 8.258,-2.68c1.896,-1.786 3.573,-3.882 5.031,-6.289l4.594,2.133Z" style="fill-rule:nonzero;"/><path d="M436.563,156.93c0,2.771 -0.566,5.131 -1.696,7.082c-1.13,1.95 -2.652,3.39 -4.566,4.32c-1.914,0.93 -4.074,1.395 -6.481,1.395c-3.062,0 -5.614,-0.72 -7.656,-2.161c-2.042,-1.44 -3.263,-3.162 -3.664,-5.168c-6.089,4.886 -12.214,7.329 -18.375,7.329c-3.938,0 -7.164,-0.957 -9.68,-2.872c-2.515,-1.914 -3.773,-4.438 -3.773,-7.574c0,-2.588 0.674,-4.931 2.023,-7.027c1.349,-2.096 3.327,-3.965 5.934,-5.606c2.607,-1.64 5.715,-3.089 9.324,-4.347c3.609,-1.258 8.112,-2.58 13.508,-3.965l0,-3.117c0,-2.589 -0.611,-4.621 -1.832,-6.098c-1.221,-1.476 -3.473,-2.215 -6.754,-2.215c-2.807,0 -4.831,0.584 -6.07,1.75c-1.24,1.167 -2.06,2.935 -2.461,5.305c-0.292,1.677 -0.83,3.053 -1.614,4.129c-0.783,1.075 -2.415,1.613 -4.894,1.613c-1.531,0 -2.88,-0.437 -4.047,-1.312c-1.167,-0.875 -1.75,-2.17 -1.75,-3.883c0,-3.391 1.841,-6.344 5.524,-8.86c3.682,-2.515 9.333,-3.773 16.953,-3.773c8.02,0 13.535,1.349 16.543,4.047c3.007,2.698 4.511,6.307 4.511,10.828l0,17.281c0,2.188 0.055,3.792 0.164,4.813c0.11,1.021 0.411,1.795 0.903,2.324c0.492,0.529 1.267,0.793 2.324,0.793c0.948,0 1.777,-0.492 2.488,-1.477c0.711,-0.984 1.067,-2.169 1.067,-3.554l4.046,0Zm-25.101,0.437l0,-13.562c-6.927,2.187 -11.329,4.329 -13.207,6.425c-1.878,2.097 -2.817,4.148 -2.817,6.153c0,1.677 0.511,3.026 1.532,4.047c1.021,1.021 2.461,1.531 4.32,1.531c2.005,0 3.774,-0.419 5.305,-1.258c1.531,-0.838 3.153,-1.95 4.867,-3.336Z" style="fill-rule:nonzero;"/><path d="M486.602,155.453c0,3.136 -0.939,5.815 -2.817,8.039c-1.877,2.224 -4.448,3.91 -7.711,5.059c-3.263,1.148 -7.027,1.722 -11.293,1.722c-2.88,0 -5.778,-0.282 -8.695,-0.847c-2.917,-0.565 -5.469,-1.413 -7.656,-2.543l-2.133,3.062l-4.266,0l-0.547,-14.218l4.594,0c0.802,2.442 2.643,4.639 5.524,6.589c2.88,1.951 7.054,2.926 12.523,2.926c1.385,0 2.88,-0.1 4.484,-0.301c1.605,-0.2 3.145,-0.756 4.621,-1.668c1.477,-0.911 2.215,-2.315 2.215,-4.21c0,-1.641 -0.756,-2.835 -2.269,-3.583c-1.513,-0.747 -4.348,-1.649 -8.504,-2.707c-5.031,-1.276 -9.151,-2.488 -12.359,-3.636c-3.209,-1.149 -5.925,-2.798 -8.149,-4.95c-2.224,-2.151 -3.336,-4.921 -3.336,-8.312c0,-4.302 1.978,-7.711 5.934,-10.227c3.955,-2.515 9.142,-3.773 15.558,-3.773c4.011,0 7.219,0.328 9.625,0.984c2.407,0.657 4.43,1.368 6.071,2.133l1.312,-2.789l4.375,0l0,12.688l-4.484,0c-0.401,-1.495 -1.313,-2.862 -2.735,-4.102c-1.421,-1.24 -3.308,-2.197 -5.66,-2.871c-2.351,-0.675 -5.077,-1.012 -8.176,-1.012c-2.552,0 -5.095,0.274 -7.628,0.821c-2.534,0.546 -3.801,1.841 -3.801,3.882c0,0.839 0.246,1.532 0.738,2.079c0.492,0.546 1.34,1.057 2.543,1.531c1.203,0.474 3.318,1.094 6.344,1.859c3.026,0.766 4.83,1.221 5.414,1.367c5.943,1.495 10.819,3.336 14.629,5.524c3.81,2.187 5.715,6.015 5.715,11.484Z" style="fill-rule:nonzero;"/><path d="M530.078,158.734c-1.969,4.12 -4.265,7.073 -6.89,8.86c-2.625,1.786 -5.706,2.679 -9.243,2.679c-4.302,0 -7.474,-0.875 -9.515,-2.625c-2.042,-1.75 -3.3,-3.709 -3.774,-5.878c-0.474,-2.17 -0.711,-4.603 -0.711,-7.301l0,-25.758l-8.257,0l0,-5.031c3.463,0 6.471,-0.657 9.023,-1.969c2.552,-1.313 4.566,-3.081 6.043,-5.305c1.476,-2.224 2.415,-4.612 2.816,-7.164l4.485,0l0,14.438l15.476,0l0,5.031l-15.476,0l0,26.086c0,3.172 0.209,5.46 0.629,6.863c0.419,1.404 1.449,2.106 3.089,2.106c1.75,0 3.191,-0.684 4.321,-2.051c1.13,-1.367 2.224,-3.072 3.281,-5.113l4.703,2.132Z" style="fill-rule:nonzero;"/><path d="M564.039,168.469l-31.445,0l0,-5.031l2.351,0c2.115,0 3.655,-0.292 4.621,-0.875c0.967,-0.584 1.559,-1.404 1.778,-2.461c0.219,-1.058 0.328,-2.607 0.328,-4.649l0,-46.594c0,-2.625 -0.611,-4.302 -1.832,-5.031c-1.222,-0.729 -3.637,-1.094 -7.246,-1.094l0,-5.031l23.187,-4.703l0,62.453c0,2.042 0.101,3.582 0.301,4.621c0.201,1.039 0.784,1.86 1.75,2.461c0.966,0.602 2.507,0.903 4.621,0.903l1.586,0l0,5.031Z" style="fill-rule:nonzero;"/><path d="M619.383,144.406l-33.633,0c0.036,0.693 0.137,2.17 0.301,4.43c0.164,2.26 0.674,4.575 1.531,6.945c0.857,2.37 2.333,4.366 4.43,5.989c2.096,1.622 4.912,2.433 8.449,2.433c1.932,0 4.266,-0.492 7,-1.476c2.734,-0.985 5.104,-2.881 7.109,-5.688l4.266,2.898c-4.302,6.891 -11.138,10.336 -20.508,10.336c-4.193,0 -8.012,-0.601 -11.457,-1.804c-3.445,-1.203 -6.371,-2.88 -8.777,-5.032c-2.406,-2.151 -4.248,-4.684 -5.524,-7.601c-1.276,-2.917 -1.914,-6.052 -1.914,-9.406c0,-4.412 1.067,-8.495 3.199,-12.25c2.133,-3.756 5.187,-6.745 9.161,-8.969c3.974,-2.224 8.513,-3.336 13.617,-3.336c4.995,0 9.215,1.076 12.66,3.227c3.445,2.151 5.988,4.94 7.629,8.367c1.641,3.427 2.461,7.073 2.461,10.937Zm-13.563,-5.031c0,-8.313 -3.281,-12.469 -9.843,-12.469c-3.172,0 -5.606,1.149 -7.301,3.446c-1.696,2.296 -2.634,5.304 -2.817,9.023l19.961,0Z" style="fill-rule:nonzero;"/><path d="M710.602,147.195c0,2.297 -0.493,4.731 -1.477,7.301c-0.984,2.57 -2.47,5.031 -4.457,7.383c-1.987,2.351 -4.494,4.266 -7.52,5.742c-3.026,1.477 -6.526,2.215 -10.5,2.215c-3.937,0 -7.847,-0.857 -11.73,-2.57c-3.883,-1.714 -7.173,-4.266 -9.871,-7.657c-1.167,2.698 -1.914,5.196 -2.242,7.493l-5.032,0l0,-25.375l5.032,0c0.911,3.645 2.169,7.072 3.773,10.281c1.604,3.208 3.874,5.97 6.809,8.285c2.935,2.315 6.535,3.473 10.8,3.473c3.719,0 6.7,-1.021 8.942,-3.063c2.242,-2.042 3.363,-4.612 3.363,-7.711c0,-1.75 -0.346,-3.281 -1.039,-4.594c-0.693,-1.312 -1.695,-2.488 -3.008,-3.527c-1.312,-1.039 -3.108,-2.151 -5.386,-3.336c-2.279,-1.185 -4.877,-2.433 -7.793,-3.746c-4.485,-2.115 -8.167,-4.247 -11.047,-6.398c-2.88,-2.151 -5.059,-4.239 -6.535,-6.262c-1.477,-2.024 -2.498,-3.947 -3.063,-5.77c-0.565,-1.823 -0.848,-3.664 -0.848,-5.523c0,-3.318 0.894,-6.59 2.68,-9.816c1.787,-3.227 4.402,-5.87 7.848,-7.93c3.445,-2.06 7.428,-3.09 11.949,-3.09c3.464,0 6.763,0.775 9.898,2.324c3.136,1.55 5.852,3.673 8.149,6.371c0.656,-1.531 1.258,-3.682 1.805,-6.453l5.14,0l0,20.672l-5.14,0c-3.646,-11.266 -9.99,-16.898 -19.032,-16.898c-3.281,0 -5.915,0.866 -7.902,2.597c-1.987,1.732 -2.98,3.965 -2.98,6.7c0,2.151 0.619,4.019 1.859,5.605c1.239,1.586 2.871,2.944 4.894,4.074c2.024,1.13 5.296,2.753 9.817,4.867c5.469,2.589 9.743,4.831 12.824,6.727c3.081,1.896 5.688,4.284 7.82,7.164c2.133,2.88 3.2,6.362 3.2,10.445Z" style="fill-rule:nonzero;"/><path d="M778.852,168.469l-28.11,0l0,-5.031c2.516,0 4.248,-0.447 5.196,-1.34c0.947,-0.894 1.421,-2.197 1.421,-3.91l0,-18.375c0,-1.823 -0.118,-3.464 -0.355,-4.922c-0.237,-1.459 -0.866,-2.78 -1.887,-3.965c-1.021,-1.185 -2.588,-1.778 -4.703,-1.778c-1.713,0 -3.454,0.465 -5.223,1.395c-1.768,0.93 -3.126,2.142 -4.074,3.637c-1.021,1.677 -1.668,3.29 -1.941,4.84c-0.274,1.549 -0.41,3.417 -0.41,5.605l0,9.406c0,2.552 0.1,4.421 0.3,5.606c0.201,1.185 0.766,2.114 1.696,2.789c0.929,0.674 2.47,1.012 4.621,1.012l0,5.031l-28.656,0l0,-5.031c2.442,0 4.238,-0.256 5.386,-0.766c1.149,-0.511 1.86,-1.267 2.133,-2.27c0.274,-1.002 0.41,-2.652 0.41,-4.949l0,-45.883c0,-2.734 -0.437,-4.566 -1.312,-5.496c-0.875,-0.929 -3.081,-1.413 -6.617,-1.449l0,-4.922l22.039,-4.703l0,36.914c2.151,-2.26 4.384,-4.165 6.699,-5.715c2.315,-1.549 5.532,-2.324 9.652,-2.324c1.896,0 3.792,0.273 5.688,0.82c1.896,0.547 3.6,1.349 5.113,2.407c1.513,1.057 2.616,2.26 3.309,3.609c1.494,2.661 2.242,6.125 2.242,10.391l0,16.351c0,3.063 0.392,5.159 1.176,6.289c0.783,1.13 2.852,1.696 6.207,1.696l0,5.031Z" style="fill-rule:nonzero;"/><path d="M841.469,156.93c0,2.771 -0.565,5.131 -1.696,7.082c-1.13,1.95 -2.652,3.39 -4.566,4.32c-1.914,0.93 -4.074,1.395 -6.48,1.395c-3.063,0 -5.615,-0.72 -7.657,-2.161c-2.041,-1.44 -3.263,-3.162 -3.664,-5.168c-6.088,4.886 -12.213,7.329 -18.375,7.329c-3.937,0 -7.164,-0.957 -9.679,-2.872c-2.516,-1.914 -3.774,-4.438 -3.774,-7.574c0,-2.588 0.675,-4.931 2.024,-7.027c1.349,-2.096 3.326,-3.965 5.933,-5.606c2.607,-1.64 5.715,-3.089 9.324,-4.347c3.61,-1.258 8.112,-2.58 13.508,-3.965l0,-3.117c0,-2.589 -0.61,-4.621 -1.832,-6.098c-1.221,-1.476 -3.472,-2.215 -6.754,-2.215c-2.807,0 -4.83,0.584 -6.07,1.75c-1.24,1.167 -2.06,2.935 -2.461,5.305c-0.292,1.677 -0.829,3.053 -1.613,4.129c-0.784,1.075 -2.416,1.613 -4.895,1.613c-1.531,0 -2.88,-0.437 -4.047,-1.312c-1.166,-0.875 -1.75,-2.17 -1.75,-3.883c0,-3.391 1.841,-6.344 5.524,-8.86c3.682,-2.515 9.333,-3.773 16.953,-3.773c8.021,0 13.535,1.349 16.543,4.047c3.008,2.698 4.512,6.307 4.512,10.828l0,17.281c0,2.188 0.054,3.792 0.164,4.813c0.109,1.021 0.41,1.795 0.902,2.324c0.492,0.529 1.267,0.793 2.324,0.793c0.948,0 1.778,-0.492 2.488,-1.477c0.711,-0.984 1.067,-2.169 1.067,-3.554l4.047,0Zm-25.102,0.437l0,-13.562c-6.927,2.187 -11.329,4.329 -13.207,6.425c-1.877,2.097 -2.816,4.148 -2.816,6.153c0,1.677 0.51,3.026 1.531,4.047c1.021,1.021 2.461,1.531 4.32,1.531c2.006,0 3.774,-0.419 5.305,-1.258c1.531,-0.838 3.154,-1.95 4.867,-3.336Z" style="fill-rule:nonzero;"/><path d="M904.633,145.281c0,4.485 -1.048,8.65 -3.145,12.496c-2.096,3.847 -4.995,6.891 -8.695,9.133c-3.701,2.242 -7.848,3.363 -12.441,3.363c-5.761,0 -10.774,-2.023 -15.039,-6.07l0,17.5c0,2.078 0.136,3.637 0.41,4.676c0.273,1.039 0.893,1.823 1.859,2.351c0.966,0.529 2.452,0.793 4.457,0.793l3.008,0l0,5.032l-31.774,0l0,-5.032c2.48,0 4.266,-0.209 5.36,-0.628c1.094,-0.42 1.795,-1.14 2.105,-2.161c0.31,-1.02 0.465,-2.698 0.465,-5.031l0,-42.82c0,-2.115 -0.155,-3.646 -0.465,-4.594c-0.31,-0.948 -1.002,-1.631 -2.078,-2.051c-1.075,-0.419 -2.871,-0.629 -5.387,-0.629l0,-5.031l21.274,-4.703c0.437,1.458 0.693,3.773 0.765,6.945c2.407,-2.406 4.895,-4.165 7.465,-5.277c2.571,-1.112 5.533,-1.668 8.887,-1.668c3.646,0 6.909,0.656 9.789,1.969c2.88,1.312 5.287,3.071 7.219,5.277c1.932,2.206 3.409,4.721 4.43,7.547c1.02,2.825 1.531,5.697 1.531,8.613Zm-15.094,-0.547c0,-11.192 -3.919,-16.789 -11.758,-16.789c-2.552,0 -4.894,0.739 -7.027,2.215c-2.133,1.477 -3.947,3.272 -5.442,5.387l0,21.601c1.422,2.151 3.273,3.865 5.551,5.141c2.279,1.276 4.621,1.914 7.028,1.914c7.765,0 11.648,-6.489 11.648,-19.469Z" style="fill-rule:nonzero;"/><path d="M962.328,144.406l-33.633,0c0.037,0.693 0.137,2.17 0.301,4.43c0.164,2.26 0.675,4.575 1.531,6.945c0.857,2.37 2.334,4.366 4.43,5.989c2.096,1.622 4.913,2.433 8.449,2.433c1.933,0 4.266,-0.492 7,-1.476c2.735,-0.985 5.104,-2.881 7.11,-5.688l4.265,2.898c-4.302,6.891 -11.138,10.336 -20.508,10.336c-4.192,0 -8.011,-0.601 -11.457,-1.804c-3.445,-1.203 -6.371,-2.88 -8.777,-5.032c-2.406,-2.151 -4.247,-4.684 -5.523,-7.601c-1.276,-2.917 -1.914,-6.052 -1.914,-9.406c0,-4.412 1.066,-8.495 3.199,-12.25c2.133,-3.756 5.186,-6.745 9.16,-8.969c3.974,-2.224 8.513,-3.336 13.617,-3.336c4.995,0 9.215,1.076 12.66,3.227c3.446,2.151 5.989,4.94 7.629,8.367c1.641,3.427 2.461,7.073 2.461,10.937Zm-13.562,-5.031c0,-8.313 -3.282,-12.469 -9.844,-12.469c-3.172,0 -5.606,1.149 -7.301,3.446c-1.695,2.296 -2.634,5.304 -2.816,9.023l19.961,0Z" style="fill-rule:nonzero;"/><path d="M1030.74,168.469l-28.328,0l0,-5.031c2.151,0 3.691,-0.283 4.621,-0.848c0.93,-0.565 1.504,-1.395 1.723,-2.488c0.219,-1.094 0.328,-2.899 0.328,-5.414l0,-15.477c0,-3.099 -0.456,-5.551 -1.367,-7.356c-0.912,-1.804 -2.771,-2.707 -5.578,-2.707c-3.828,0 -6.681,1.468 -8.559,4.403c-1.878,2.935 -2.816,6.316 -2.816,10.144l0,12.25c0,2.881 0.419,4.849 1.257,5.907c0.839,1.057 2.644,1.585 5.415,1.585l0,5.032l-28.875,0l0,-5.032c2.369,0 4.119,-0.209 5.25,-0.628c1.13,-0.42 1.877,-1.167 2.242,-2.243c0.364,-1.075 0.547,-2.78 0.547,-5.113l0,-17.664c0,-2.552 -0.493,-4.22 -1.477,-5.004c-0.984,-0.784 -3.172,-1.176 -6.562,-1.176l0,-5.031l21.273,-4.703c0.328,2.115 0.492,4.083 0.492,5.906c0,0.474 -0.009,0.884 -0.027,1.231c-0.018,0.346 -0.028,0.738 -0.028,1.175c2.297,-2.442 4.685,-4.438 7.165,-5.988c2.479,-1.549 5.578,-2.324 9.296,-2.324c3.136,0 5.952,0.565 8.45,1.695c2.497,1.131 4.457,2.844 5.879,5.141c1.421,2.297 2.132,5.068 2.132,8.312l0,18.43c0,3.063 0.41,5.159 1.231,6.289c0.82,1.13 2.926,1.695 6.316,1.695l0,5.032Z" style="fill-rule:nonzero;"/><path d="M1091.23,145.938c0,4.958 -1.204,9.278 -3.61,12.96c-2.406,3.683 -5.66,6.499 -9.762,8.45c-4.101,1.95 -8.595,2.925 -13.48,2.925c-4.594,0 -8.941,-0.893 -13.043,-2.679c-4.102,-1.787 -7.456,-4.503 -10.062,-8.149c-2.607,-3.646 -3.911,-8.112 -3.911,-13.398c0,-7.912 2.698,-13.918 8.094,-18.02c5.396,-4.101 11.813,-6.152 19.25,-6.152c5.542,0 10.318,1.094 14.328,3.281c4.011,2.188 7.046,5.123 9.106,8.805c2.06,3.682 3.09,7.674 3.09,11.976Zm-15.094,-0.328c0,-6.198 -0.821,-10.864 -2.461,-14c-1.641,-3.135 -4.831,-4.703 -9.57,-4.703c-3.026,0 -5.387,0.684 -7.082,2.051c-1.696,1.367 -2.881,3.482 -3.555,6.344c-0.675,2.862 -1.012,6.571 -1.012,11.129c0,5.614 0.748,10.153 2.242,13.617c1.495,3.463 4.758,5.195 9.789,5.195c3.318,0 5.843,-0.957 7.575,-2.871c1.731,-1.914 2.843,-4.284 3.336,-7.109c0.492,-2.826 0.738,-6.043 0.738,-9.653Z" style="fill-rule:nonzero;"/><path d="M1135.69,158.734c-1.969,4.12 -4.266,7.073 -6.891,8.86c-2.625,1.786 -5.706,2.679 -9.242,2.679c-4.302,0 -7.474,-0.875 -9.516,-2.625c-2.042,-1.75 -3.299,-3.709 -3.773,-5.878c-0.474,-2.17 -0.711,-4.603 -0.711,-7.301l0,-25.758l-8.258,0l0,-5.031c3.463,0 6.471,-0.657 9.023,-1.969c2.552,-1.313 4.567,-3.081 6.043,-5.305c1.477,-2.224 2.416,-4.612 2.817,-7.164l4.484,0l0,14.438l15.477,0l0,5.031l-15.477,0l0,26.086c0,3.172 0.21,5.46 0.629,6.863c0.419,1.404 1.449,2.106 3.09,2.106c1.75,0 3.19,-0.684 4.32,-2.051c1.13,-1.367 2.224,-3.072 3.281,-5.113l4.704,2.132Z" style="fill-rule:nonzero;"/><path d="M1189.94,144.406l-33.633,0c0.036,0.693 0.136,2.17 0.3,4.43c0.165,2.26 0.675,4.575 1.532,6.945c0.856,2.37 2.333,4.366 4.429,5.989c2.097,1.622 4.913,2.433 8.45,2.433c1.932,0 4.265,-0.492 7,-1.476c2.734,-0.985 5.104,-2.881 7.109,-5.688l4.266,2.898c-4.302,6.891 -11.138,10.336 -20.508,10.336c-4.193,0 -8.012,-0.601 -11.457,-1.804c-3.446,-1.203 -6.371,-2.88 -8.778,-5.032c-2.406,-2.151 -4.247,-4.684 -5.523,-7.601c-1.276,-2.917 -1.914,-6.052 -1.914,-9.406c0,-4.412 1.066,-8.495 3.199,-12.25c2.133,-3.756 5.186,-6.745 9.16,-8.969c3.974,-2.224 8.513,-3.336 13.617,-3.336c4.995,0 9.215,1.076 12.661,3.227c3.445,2.151 5.988,4.94 7.629,8.367c1.64,3.427 2.46,7.073 2.46,10.937Zm-13.562,-5.031c0,-8.313 -3.281,-12.469 -9.844,-12.469c-3.172,0 -5.605,1.149 -7.301,3.446c-1.695,2.296 -2.634,5.304 -2.816,9.023l19.961,0Z" style="fill-rule:nonzero;"/></svg>